<svg width="83" height="96" viewBox="0 0 83 96" fill="none" xmlns="http://www.w3.org/2000/svg">
<path d="M31.1172 91L29.4731 86.7996H24.1797L22.5537 91H21L26.2212 77.7393H27.5129L32.707 91H31.1172ZM28.9944 85.4175L27.4587 81.3254C27.26 80.8075 27.0553 80.1722 26.8445 79.4194C26.712 79.9976 26.5223 80.6329 26.2754 81.3254L24.7217 85.4175H28.9944ZM46.1416 91H44.624L41.9592 82.1565C41.8327 81.7651 41.6912 81.2712 41.5346 80.675C41.3781 80.0789 41.2968 79.7205 41.2907 79.6001C41.1583 80.395 40.9475 81.2652 40.6584 82.2107L38.0749 91H36.5573L33.0434 77.7935H34.6694L36.7561 85.9504C37.0451 87.0946 37.2559 88.1305 37.3884 89.0579C37.551 87.9558 37.7919 86.8778 38.1111 85.824L40.4778 77.7935H42.1037L44.5879 85.8962C44.8769 86.8297 45.1208 87.8835 45.3195 89.0579C45.434 88.2027 45.6508 87.1609 45.9699 85.9324L48.0476 77.7935H49.6736L46.1416 91ZM59.287 87.4861C59.287 88.6484 58.8655 89.5547 58.0224 90.2051C57.1793 90.8555 56.0351 91.1807 54.5898 91.1807C53.024 91.1807 51.8196 90.9789 50.9765 90.5754V89.094C51.5185 89.3228 52.1087 89.5035 52.747 89.636C53.3854 89.7685 54.0177 89.8347 54.644 89.8347C55.6677 89.8347 56.4386 89.642 56.9565 89.2566C57.4744 88.8652 57.7333 88.3232 57.7333 87.6306C57.7333 87.1729 57.64 86.7996 57.4533 86.5105C57.2726 86.2154 56.9655 85.9444 56.5319 85.6975C56.1043 85.4506 55.4509 85.1706 54.5717 84.8574C53.3432 84.4178 52.464 83.8969 51.934 83.2947C51.4101 82.6925 51.1481 81.9066 51.1481 80.937C51.1481 79.9193 51.5305 79.1093 52.2953 78.5071C53.0602 77.9049 54.0719 77.6038 55.3305 77.6038C56.6433 77.6038 57.8508 77.8446 58.9528 78.3264L58.4741 79.6633C57.3841 79.2056 56.3242 78.9768 55.2944 78.9768C54.4814 78.9768 53.846 79.1514 53.3884 79.5007C52.9307 79.85 52.7018 80.3348 52.7018 80.9551C52.7018 81.4128 52.7862 81.7891 52.9548 82.0842C53.1234 82.3733 53.4064 82.6413 53.8039 82.8882C54.2074 83.1291 54.8216 83.3971 55.6467 83.6921C57.0318 84.186 57.9833 84.7159 58.5012 85.282C59.0251 85.8481 59.287 86.5828 59.287 87.4861Z" fill="url(#paint0_linear_81_185)"/>
<g clip-path="url(#clip0_81_185)">
<path d="M23.256 26.1692C23.1632 29.0889 24.6224 30.3818 24.6585 31.2029C24.6414 31.3701 24.5844 31.5307 24.4925 31.6713C24.4005 31.8119 24.2762 31.9285 24.13 32.0112L22.48 33.1662C22.2664 33.3159 22.0147 33.4017 21.7542 33.4137C21.6988 33.4111 20.6985 33.6496 19.1142 30.1124C18.1477 31.319 16.9179 32.2884 15.519 32.9464C14.1201 33.6044 12.5892 33.9336 11.0434 33.9087C8.94482 34.0234 3.25748 32.7176 3.55009 26.6629C3.34513 21.7283 7.94064 18.6629 12.6934 18.922C13.6086 18.9246 15.4778 18.9697 18.7507 19.7303V17.7168C19.0975 14.3059 16.8558 11.6595 12.9744 12.0565C12.6651 12.0578 10.4736 11.992 7.06537 13.3597C6.11662 13.7954 5.99545 13.7233 5.67963 13.7233C4.72443 13.7233 5.11759 10.9544 5.30064 10.6037C5.97224 9.77873 9.92322 8.2383 13.8007 8.26021C16.3933 8.03097 18.972 8.83111 20.9795 10.4877C21.7954 11.4005 22.4179 12.4692 22.8094 13.6293C23.2009 14.7893 23.3532 16.0167 23.2573 17.2372L23.256 26.1692ZM12.1159 30.3444C16.2963 30.2838 18.0662 27.7702 18.4697 26.4167C18.7868 25.1211 18.734 24.3013 18.734 22.8846C17.4874 22.5856 15.6931 22.2594 13.6344 22.2569C11.6815 22.1099 8.11466 22.9826 8.25388 26.4154C8.09404 28.5797 9.68732 30.463 12.1159 30.3444ZM34.1486 33.3157C33.1354 33.4085 32.6636 32.6892 32.514 31.979L26.0945 10.7545C25.9695 10.3962 25.887 10.0262 25.847 9.64853C25.8233 9.49282 25.8624 9.33407 25.9557 9.20717C26.049 9.08028 26.1889 8.99561 26.3446 8.97177C26.3755 8.96662 26.07 8.97177 29.2128 8.97177C30.3445 8.85834 30.7132 9.74908 30.8305 10.3085L35.4351 28.4624L39.7096 10.3085C39.7779 9.89345 40.0886 8.88154 41.3596 8.98853H43.5716C43.8513 8.96533 45.0038 8.92408 45.2061 10.3253L49.5142 28.7112L54.267 10.3253C54.3288 10.0443 54.6176 8.85963 55.9015 8.98853H58.4435C58.5531 8.97177 59.2363 8.88412 59.1203 10.0945C59.0649 10.333 59.5599 8.72041 52.3205 31.9957C52.1722 32.706 51.6992 33.4253 50.686 33.3325H48.2767C46.8665 33.4807 46.6641 32.0872 46.6422 31.9467L42.3676 14.2698L38.1421 31.9287C38.1215 32.0692 37.9191 33.4627 36.5076 33.3144H34.1486V33.3157ZM69.4019 34.0415C68.6439 34.0427 65.0294 34.0028 62.0078 32.4572C61.7068 32.3298 61.4504 32.1159 61.2712 31.8425C61.0919 31.5692 60.9979 31.2488 61.001 30.9219V29.5362C61.001 28.4469 61.8002 28.6467 62.1393 28.7769C63.4335 29.3003 64.2636 29.6973 65.8531 30.0144C70.5775 30.9851 72.6554 29.7179 73.1646 29.4369C74.8597 28.4302 74.9938 26.1266 73.8414 24.9317C72.4904 23.7986 71.8459 23.756 66.9926 22.2246C66.3945 22.0583 61.3594 20.4702 61.3478 15.4751C61.2692 11.8348 64.5769 8.23314 70.3094 8.26279C71.9426 8.2615 76.2945 8.79517 77.4727 10.2763C77.6467 10.5457 77.7331 10.8628 77.7202 11.1838V12.487C77.7202 13.0594 77.5113 13.3456 77.0924 13.3456C76.0985 13.2347 74.3351 11.9057 70.7554 11.9598C69.8672 11.9134 65.6133 12.0771 65.8041 15.1786C65.7486 17.6227 69.2343 18.5392 69.6326 18.6449C74.3325 20.059 75.9039 20.2936 77.7692 22.4579C79.9786 25.3261 78.7875 28.6841 78.3299 29.6045C75.8704 34.4372 69.5101 34.044 69.4019 34.0415ZM74.5839 47.5586C65.5566 54.2256 52.452 57.7744 41.2629 57.7744C26.1655 57.8739 11.5769 52.3225 0.364821 42.2115C-0.476937 41.4523 0.265563 40.412 1.28908 40.9908C13.7265 48.1053 27.8084 51.8435 42.1369 51.8344C52.8371 51.7771 63.4205 49.6064 73.2793 45.4471C74.7979 44.8026 76.0856 46.4526 74.5839 47.5586ZM78.3467 43.2673C77.1917 41.7823 70.7051 42.5738 67.8008 42.9205C66.9256 43.0198 66.7773 42.2605 67.5701 41.6998C72.7354 38.0685 81.2187 39.1088 82.1932 40.3295C83.1665 41.5502 81.929 50.0503 77.0937 54.1109C76.3512 54.7386 75.6409 54.4074 75.9709 53.5824C77.0589 50.8431 79.5017 44.7536 78.3467 43.2673Z" fill="url(#paint1_linear_81_185)"/>
</g>
<defs>
<linearGradient id="paint0_linear_81_185" x1="41" y1="72" x2="41" y2="96" gradientUnits="userSpaceOnUse">
<stop stop-color="#A7CF9E"/>
<stop offset="1" stop-color="#EBEBEB"/>
</linearGradient>
<linearGradient id="paint1_linear_81_185" x1="41.2504" y1="8.22168" x2="41.2504" y2="57.7757" gradientUnits="userSpaceOnUse">
<stop stop-color="#A7CF9E"/>
<stop offset="1" stop-color="#D2D2AF"/>
</linearGradient>
<clipPath id="clip0_81_185">
<rect width="82.5" height="66" fill="white"/>
</clipPath>
</defs>
</svg>
