<svg width="87" height="103" viewBox="0 0 87 103" fill="none" xmlns="http://www.w3.org/2000/svg">
<path d="M7.66016 97.0786L3.17969 85.3716H3.10742C3.19173 86.299 3.23389 87.401 3.23389 88.6777V97.0786H1.81567V83.8721H4.12817L8.31055 94.7661H8.38281L12.6013 83.8721H14.8958V97.0786H13.3601V88.5693C13.3601 87.5938 13.4023 86.5339 13.4866 85.3896H13.4143L8.8977 97.0786H7.66016ZM26.9392 92.1194C26.9392 93.7333 26.5327 94.995 25.7197 95.9043C24.9067 96.8076 23.7836 97.2593 22.3503 97.2593C21.4651 97.2593 20.6792 97.0515 19.9926 96.636C19.3061 96.2205 18.7762 95.6243 18.4028 94.8474C18.0294 94.0706 17.8427 93.1612 17.8427 92.1194C17.8427 90.5055 18.2462 89.2498 19.0532 88.3525C19.8602 87.4492 20.9803 86.9976 22.4135 86.9976C23.7986 86.9976 24.8977 87.4583 25.7107 88.3796C26.5297 89.301 26.9392 90.5476 26.9392 92.1194ZM19.3965 92.1194C19.3965 93.384 19.6494 94.3476 20.1552 95.01C20.6611 95.6724 21.4048 96.0037 22.3864 96.0037C23.3681 96.0037 24.1118 95.6755 24.6176 95.019C25.1295 94.3566 25.3855 93.3901 25.3855 92.1194C25.3855 90.8608 25.1295 89.9063 24.6176 89.2559C24.1118 88.5994 23.362 88.2712 22.3684 88.2712C21.3868 88.2712 20.646 88.5934 20.1462 89.2378C19.6464 89.8822 19.3965 90.8427 19.3965 92.1194ZM36.4443 97.0786V90.6741C36.4443 89.8671 36.2606 89.2649 35.8932 88.8674C35.5259 88.47 34.9508 88.2712 34.1679 88.2712C33.1321 88.2712 32.3733 88.5513 31.8915 89.1113C31.4098 89.6714 31.1689 90.5958 31.1689 91.8845V97.0786H29.6694V87.1782H30.8889L31.1328 88.5332H31.205C31.5121 88.0454 31.9427 87.669 32.4968 87.4041C33.0508 87.1331 33.6681 86.9976 34.3486 86.9976C35.541 86.9976 36.4383 87.2866 37.0405 87.8647C37.6427 88.4368 37.9438 89.3552 37.9438 90.6199V97.0786H36.4443ZM49.2284 87.1782V88.1267L47.3947 88.3435C47.5633 88.5543 47.7139 88.8313 47.8463 89.1746C47.9788 89.5118 48.0451 89.8942 48.0451 90.3218C48.0451 91.2913 47.7139 92.0652 47.0514 92.6433C46.389 93.2214 45.4796 93.5105 44.3234 93.5105C44.0283 93.5105 43.7513 93.4864 43.4923 93.4382C42.854 93.7755 42.5348 94.2 42.5348 94.7119C42.5348 94.9829 42.6462 95.1847 42.869 95.3171C43.0919 95.4436 43.4743 95.5068 44.0163 95.5068H45.7687C46.8406 95.5068 47.6627 95.7327 48.2348 96.1843C48.8129 96.636 49.102 97.2924 49.102 98.1536C49.102 99.2496 48.6623 100.084 47.7831 100.656C46.9039 101.234 45.6212 101.523 43.935 101.523C42.6402 101.523 41.6405 101.282 40.9359 100.8C40.2374 100.319 39.8881 99.638 39.8881 98.7588C39.8881 98.1566 40.0808 97.6357 40.4662 97.196C40.8516 96.7564 41.3936 96.4583 42.0922 96.3018C41.8393 96.1873 41.6255 96.0097 41.4508 95.7688C41.2822 95.5279 41.1979 95.2479 41.1979 94.9287C41.1979 94.5674 41.2943 94.2512 41.487 93.9802C41.6797 93.7092 41.9838 93.4473 42.3993 93.1943C41.8874 92.9836 41.4689 92.6252 41.1437 92.1194C40.8245 91.6135 40.6649 91.0354 40.6649 90.385C40.6649 89.301 40.9901 88.467 41.6405 87.8828C42.2909 87.2926 43.2123 86.9976 44.4047 86.9976C44.9226 86.9976 45.3893 87.0578 45.8048 87.1782H49.2284ZM41.3334 98.7407C41.3334 99.2767 41.5592 99.6832 42.0109 99.9602C42.4626 100.237 43.1099 100.376 43.953 100.376C45.2117 100.376 46.1421 100.186 46.7443 99.8066C47.3525 99.4333 47.6566 98.9244 47.6566 98.28C47.6566 97.7441 47.491 97.3707 47.1598 97.1599C46.8286 96.9552 46.2053 96.8528 45.2899 96.8528H43.4923C42.8118 96.8528 42.2819 97.0154 41.9025 97.3406C41.5231 97.6658 41.3334 98.1325 41.3334 98.7407ZM42.1464 90.3489C42.1464 91.0414 42.3421 91.5653 42.7336 91.9207C43.125 92.276 43.67 92.4536 44.3686 92.4536C45.8319 92.4536 46.5636 91.743 46.5636 90.3218C46.5636 88.8343 45.8229 88.0906 44.3415 88.0906C43.6369 88.0906 43.0949 88.2803 42.7155 88.6597C42.3361 89.0391 42.1464 89.6021 42.1464 90.3489ZM59.8988 92.1194C59.8988 93.7333 59.4923 94.995 58.6793 95.9043C57.8663 96.8076 56.7432 97.2593 55.3099 97.2593C54.4247 97.2593 53.6388 97.0515 52.9523 96.636C52.2657 96.2205 51.7358 95.6243 51.3624 94.8474C50.9891 94.0706 50.8024 93.1612 50.8024 92.1194C50.8024 90.5055 51.2059 89.2498 52.0128 88.3525C52.8198 87.4492 53.9399 86.9976 55.3732 86.9976C56.7583 86.9976 57.8573 87.4583 58.6703 88.3796C59.4893 89.301 59.8988 90.5476 59.8988 92.1194ZM52.3561 92.1194C52.3561 93.384 52.609 94.3476 53.1149 95.01C53.6207 95.6724 54.3645 96.0037 55.3461 96.0037C56.3277 96.0037 57.0714 95.6755 57.5773 95.019C58.0892 94.3566 58.3451 93.3901 58.3451 92.1194C58.3451 90.8608 58.0892 89.9063 57.5773 89.2559C57.0714 88.5994 56.3217 88.2712 55.328 88.2712C54.3464 88.2712 53.6057 88.5934 53.1058 89.2378C52.606 89.8822 52.3561 90.8427 52.3561 92.1194ZM73.3966 90.3489C73.3966 92.5289 72.8034 94.197 71.617 95.3533C70.4367 96.5035 68.7354 97.0786 66.5133 97.0786H62.8548V83.8721H66.9017C68.9553 83.8721 70.5511 84.4412 71.6893 85.5793C72.8275 86.7175 73.3966 88.3074 73.3966 90.3489ZM71.7706 90.4031C71.7706 88.6807 71.337 87.383 70.4698 86.5098C69.6087 85.6366 68.3259 85.2 66.6217 85.2H64.3905V95.7507H66.2603C68.0911 95.7507 69.4671 95.3021 70.3885 94.4048C71.3099 93.5015 71.7706 92.1676 71.7706 90.4031ZM76.4429 83.8721H80.1736C81.9261 83.8721 83.1937 84.134 83.9766 84.658C84.7595 85.1819 85.1509 86.0099 85.1509 87.1421C85.1509 87.925 84.9311 88.5723 84.4915 89.0842C84.0579 89.5901 83.4226 89.9183 82.5855 90.0688V90.1592C84.5909 90.5024 85.5936 91.5563 85.5936 93.3208C85.5936 94.5011 85.1931 95.4225 84.3921 96.085C83.5972 96.7474 82.4831 97.0786 81.0499 97.0786H76.4429V83.8721ZM77.9786 89.5269H80.5079C81.5919 89.5269 82.3717 89.3582 82.8475 89.021C83.3232 88.6777 83.5611 88.1026 83.5611 87.2957C83.5611 86.5549 83.2961 86.022 82.7662 85.6968C82.2362 85.3656 81.3931 85.2 80.2369 85.2H77.9786V89.5269ZM77.9786 90.8276V95.7688H80.7337C81.7996 95.7688 82.6006 95.564 83.1365 95.1545C83.6785 94.739 83.9495 94.0916 83.9495 93.2124C83.9495 92.3934 83.6725 91.7912 83.1185 91.4058C82.5705 91.0203 81.7334 90.8276 80.6072 90.8276H77.9786Z" fill="url(#paint0_linear_81_204)"/>
<path d="M48.93 11.9848C46.55 9.15149 44.4816 6.31816 44.085 5.69482H44C43.6033 6.28982 41.535 9.15149 39.155 11.9848C18.755 38.0232 42.385 55.5898 42.385 55.5898L42.5833 55.7315C42.7533 58.4232 43.2066 62.3332 43.2066 62.3332H44.9633C44.9633 62.3332 45.3883 58.4515 45.5583 55.7315L45.7566 55.5615C45.7566 55.5615 69.33 38.0232 48.93 11.9848ZM44 55.1932C43.5036 54.785 43.0482 54.3295 42.64 53.8332L44 25.4998L45.275 53.8332C44.8924 54.3245 44.4656 54.7797 44 55.1932Z" fill="url(#paint1_linear_81_204)"/>
<defs>
<linearGradient id="paint0_linear_81_204" x1="43.5" y1="78.0786" x2="43.5" y2="102.079" gradientUnits="userSpaceOnUse">
<stop stop-color="#A7CF9E"/>
<stop offset="1" stop-color="#D2D2AF"/>
</linearGradient>
<linearGradient id="paint1_linear_81_204" x1="44.0486" y1="5.69482" x2="44.0486" y2="62.3332" gradientUnits="userSpaceOnUse">
<stop stop-color="#A7CF9E"/>
<stop offset="1" stop-color="#D2D2AF"/>
</linearGradient>
</defs>
</svg>
