<svg width="68" height="103" viewBox="0 0 68 103" fill="none" xmlns="http://www.w3.org/2000/svg">
<path d="M16.1316 97.0786H14.3791L7.16162 85.9949H7.08936C7.18571 87.2957 7.23389 88.488 7.23389 89.572V97.0786H5.81567V83.8721H7.55005L14.7495 94.9106H14.8218C14.8097 94.748 14.7826 94.2271 14.7405 93.3479C14.6983 92.4626 14.6833 91.8303 14.6953 91.4509V83.8721H16.1316V97.0786ZM23.812 97.2593C22.3486 97.2593 21.1924 96.8136 20.3432 95.9224C19.5001 95.0311 19.0786 93.7935 19.0786 92.2097C19.0786 90.6139 19.47 89.3462 20.2529 88.4067C21.0418 87.4673 22.0987 86.9976 23.4236 86.9976C24.6641 86.9976 25.6457 87.4071 26.3684 88.2261C27.091 89.0391 27.4524 90.114 27.4524 91.4509V92.3994H20.6323C20.6624 93.5617 20.9545 94.4439 21.5085 95.0461C22.0686 95.6484 22.8545 95.9495 23.8662 95.9495C24.9321 95.9495 25.986 95.7266 27.0278 95.281V96.6179C26.4979 96.8468 25.995 97.0094 25.5193 97.1057C25.0495 97.2081 24.4804 97.2593 23.812 97.2593ZM23.4055 88.2532C22.6106 88.2532 21.9752 88.5121 21.4995 89.03C21.0298 89.5479 20.7527 90.2646 20.6684 91.1799H25.8445C25.8445 90.2345 25.6337 89.5118 25.2121 89.012C24.7906 88.5061 24.1884 88.2532 23.4055 88.2532ZM32.4951 92.011L29.0534 87.1782H30.7607L33.3713 90.9722L35.9728 87.1782H37.662L34.2204 92.011L37.8427 97.0786H36.1445L33.3713 93.0679L30.571 97.0786H28.8727L32.4951 92.011ZM43.1022 96.0217C43.3672 96.0217 43.6231 96.0037 43.87 95.9675C44.1169 95.9254 44.3127 95.8832 44.4572 95.8411V96.9883C44.2946 97.0666 44.0537 97.1298 43.7345 97.178C43.4214 97.2322 43.1383 97.2593 42.8854 97.2593C40.9704 97.2593 40.0128 96.2506 40.0128 94.2332V88.3435H38.5946V87.6209L40.0128 86.9976L40.6452 84.8838H41.5124V87.1782H44.3849V88.3435H41.5124V94.1699C41.5124 94.7661 41.6539 95.2238 41.9369 95.543C42.22 95.8621 42.6084 96.0217 43.1022 96.0217ZM46.3202 96.1211C46.3202 95.7176 46.4105 95.4135 46.5912 95.2087C46.7779 94.998 47.0428 94.8926 47.3861 94.8926C47.7354 94.8926 48.0064 94.998 48.1991 95.2087C48.3978 95.4135 48.4972 95.7176 48.4972 96.1211C48.4972 96.5125 48.3978 96.8136 48.1991 97.0244C48.0004 97.2352 47.7294 97.3406 47.3861 97.3406C47.079 97.3406 46.823 97.2472 46.6183 97.0605C46.4196 96.8678 46.3202 96.5547 46.3202 96.1211ZM50.3602 101.523C49.7881 101.523 49.3244 101.448 48.9691 101.297V100.078C49.3846 100.198 49.7941 100.258 50.1976 100.258C50.6673 100.258 51.0106 100.129 51.2274 99.8699C51.4502 99.6169 51.5616 99.2285 51.5616 98.7046V87.1782H53.0611V98.5962C53.0611 100.547 52.1608 101.523 50.3602 101.523ZM51.4351 84.4954C51.4351 84.1521 51.5195 83.9022 51.6881 83.7456C51.8567 83.583 52.0675 83.5017 52.3204 83.5017C52.5613 83.5017 52.7691 83.583 52.9437 83.7456C53.1183 83.9082 53.2057 84.1581 53.2057 84.4954C53.2057 84.8326 53.1183 85.0855 52.9437 85.2542C52.7691 85.4167 52.5613 85.498 52.3204 85.498C52.0675 85.498 51.8567 85.4167 51.6881 85.2542C51.5195 85.0855 51.4351 84.8326 51.4351 84.4954ZM62.7198 94.3777C62.7198 95.2991 62.3765 96.0097 61.69 96.5095C61.0035 97.0094 60.0399 97.2593 58.7994 97.2593C57.4866 97.2593 56.4628 97.0515 55.7281 96.636V95.2449C56.2038 95.4858 56.7127 95.6755 57.2547 95.814C57.8027 95.9525 58.3297 96.0217 58.8355 96.0217C59.6184 96.0217 60.2206 95.8983 60.6422 95.6514C61.0637 95.3984 61.2745 95.016 61.2745 94.5042C61.2745 94.1187 61.1059 93.7905 60.7686 93.5195C60.4374 93.2425 59.787 92.9173 58.8174 92.5439C57.8961 92.2007 57.2396 91.9026 56.8482 91.6497C56.4628 91.3907 56.1737 91.0986 55.981 90.7734C55.7943 90.4482 55.701 90.0598 55.701 89.6082C55.701 88.8012 56.0292 88.1659 56.6856 87.7021C57.342 87.2324 58.2423 86.9976 59.3865 86.9976C60.4525 86.9976 61.4943 87.2144 62.512 87.648L61.9791 88.8674C60.9854 88.4579 60.0851 88.2532 59.2781 88.2532C58.5675 88.2532 58.0316 88.3646 57.6702 88.5874C57.3089 88.8102 57.1282 89.1174 57.1282 89.5088C57.1282 89.7738 57.1945 89.9996 57.327 90.1863C57.4655 90.373 57.6853 90.5506 57.9864 90.7192C58.2875 90.8879 58.8656 91.1318 59.7208 91.4509C60.8951 91.8785 61.687 92.3091 62.0965 92.7427C62.512 93.1763 62.7198 93.7213 62.7198 94.3777Z" fill="url(#paint0_linear_81_210)"/>
<path d="M32.1441 6.81415L31.2856 6.89065C23.239 7.61599 15.6995 11.9595 10.9225 18.632C8.2831 22.2965 6.56754 26.544 5.92163 31.0137C5.69496 32.5663 5.66663 33.0253 5.66663 35.1362C5.66663 37.247 5.69496 37.706 5.92163 39.2643C7.46013 49.9035 15.0336 58.8427 25.3016 62.1548C27.1433 62.747 29.0813 63.1493 31.2856 63.3958C32.1441 63.4893 35.8558 63.4893 36.7143 63.3958C40.5195 62.9708 43.741 62.033 46.9228 60.4095C47.4101 60.1602 47.5036 60.0922 47.4385 60.0383C47.3931 60.0043 45.3163 57.2192 42.823 53.8503L38.2925 47.7303L32.6145 39.3295C30.727 36.5192 28.822 33.7208 26.8996 30.9343C26.877 30.9287 26.8543 34.6602 26.843 39.219C26.826 47.2005 26.8203 47.5207 26.7211 47.7105C26.6234 47.9309 26.4507 48.1096 26.2338 48.2148C26.0553 48.2998 25.9023 48.3197 25.0665 48.3197H24.106L23.851 48.1582C23.6969 48.0552 23.5704 47.9161 23.4826 47.753L23.3636 47.5037L23.375 36.3998L23.392 25.2903L23.562 25.075C23.6761 24.9367 23.8156 24.8213 23.9728 24.735C24.1995 24.6245 24.2901 24.6132 25.2478 24.6132C26.3783 24.6132 26.5653 24.6585 26.86 24.9815C26.945 25.0665 30.0163 29.699 33.694 35.275L44.8743 52.207L49.3595 59.0013L49.5861 58.854C51.5978 57.545 53.7228 55.6863 55.4086 53.7455C58.9789 49.6607 61.2947 44.6326 62.0783 39.2643C62.305 37.706 62.3333 37.247 62.3333 35.1362C62.3333 33.0282 62.305 32.5663 62.0783 31.0108C60.5398 20.3717 52.9663 11.4325 42.6983 8.12032C40.7779 7.50973 38.8005 7.09583 36.7965 6.88499C36.2666 6.82832 32.6031 6.77165 32.1441 6.81415ZM43.7438 23.9502C44.0101 24.0833 44.2255 24.3383 44.302 24.6018C44.3473 24.7463 44.3586 27.8262 44.3473 34.765L44.3303 44.7242L42.5736 42.0325L40.8141 39.3408V32.1017C40.8141 27.421 40.8368 24.7917 40.8708 24.6642C40.9105 24.5172 40.9793 24.3798 41.0733 24.26C41.1672 24.1403 41.2843 24.0407 41.4176 23.9672C41.6443 23.851 41.7293 23.8397 42.5963 23.8397C43.418 23.8397 43.5596 23.851 43.7438 23.9502Z" fill="url(#paint1_linear_81_210)"/>
<defs>
<linearGradient id="paint0_linear_81_210" x1="34" y1="78.0786" x2="34" y2="102.079" gradientUnits="userSpaceOnUse">
<stop stop-color="#A7CF9E"/>
<stop offset="1" stop-color="#D2D2AF"/>
</linearGradient>
<linearGradient id="paint1_linear_81_210" x1="34" y1="6.79932" x2="34" y2="63.4659" gradientUnits="userSpaceOnUse">
<stop stop-color="#A7CF9E"/>
<stop offset="1" stop-color="#D2D2AF"/>
</linearGradient>
</defs>
</svg>
