<svg width="109" height="103" viewBox="0 0 109 103" fill="none" xmlns="http://www.w3.org/2000/svg">
<path d="M3.35132 91.5864V97.0786H1.81567V83.8721H5.43799C7.05794 83.8721 8.25334 84.1822 9.02417 84.8025C9.80102 85.4228 10.1895 86.3562 10.1895 87.6028C10.1895 89.3492 9.3042 90.5295 7.53369 91.1438L11.1199 97.0786H9.3042L6.10644 91.5864H3.35132ZM3.35132 90.2676H5.45605C6.54004 90.2676 7.33496 90.0538 7.84082 89.6262C8.34668 89.1926 8.59961 88.5452 8.59961 87.6841C8.59961 86.8109 8.34066 86.1816 7.82275 85.7961C7.31087 85.4107 6.48584 85.218 5.34766 85.218H3.35132V90.2676ZM17.3008 97.2593C15.8374 97.2593 14.6811 96.8136 13.832 95.9224C12.9889 95.0311 12.5674 93.7935 12.5674 92.2097C12.5674 90.6139 12.9588 89.3462 13.7417 88.4067C14.5306 87.4673 15.5875 86.9976 16.9123 86.9976C18.1529 86.9976 19.1345 87.4071 19.8571 88.2261C20.5798 89.0391 20.9411 90.114 20.9411 91.4509V92.3994H14.1211C14.1512 93.5617 14.4432 94.4439 14.9973 95.0461C15.5573 95.6484 16.3432 95.9495 17.3549 95.9495C18.4209 95.9495 19.4747 95.7266 20.5166 95.281V96.6179C19.9866 96.8468 19.4838 97.0094 19.008 97.1057C18.5383 97.2081 17.9692 97.2593 17.3008 97.2593ZM16.8943 88.2532C16.0993 88.2532 15.464 88.5121 14.9883 89.03C14.5185 89.5479 14.2415 90.2646 14.1572 91.1799H19.3332C19.3332 90.2345 19.1224 89.5118 18.7009 89.012C18.2793 88.5061 17.6771 88.2532 16.8943 88.2532ZM29.6874 97.0786L29.3893 95.6694H29.3171C28.8233 96.2897 28.3294 96.7113 27.8356 96.9341C27.3478 97.1509 26.7366 97.2593 26.0019 97.2593C25.0203 97.2593 24.2495 97.0063 23.6894 96.5005C23.1354 95.9946 22.8583 95.275 22.8583 94.3416C22.8583 92.3422 24.4572 91.2944 27.655 91.198L29.3351 91.1438V90.5295C29.3351 89.7527 29.1665 89.1806 28.8293 88.8132C28.4981 88.4399 27.9651 88.2532 27.2304 88.2532C26.4054 88.2532 25.4719 88.5061 24.4301 89.012L23.9694 87.8647C24.4572 87.5998 24.9902 87.392 25.5683 87.2415C26.1524 87.0909 26.7366 87.0156 27.3207 87.0156C28.5011 87.0156 29.3743 87.2776 29.9404 87.8015C30.5125 88.3254 30.7985 89.1655 30.7985 90.3218V97.0786H29.6874ZM26.3 96.0217C27.2334 96.0217 27.9651 95.7658 28.4951 95.2539C29.031 94.742 29.299 94.0254 29.299 93.104V92.2097L27.7995 92.2729C26.6071 92.3151 25.746 92.5018 25.216 92.833C24.6921 93.1582 24.4301 93.6671 24.4301 94.3596C24.4301 94.9016 24.5927 95.3141 24.9179 95.5972C25.2491 95.8802 25.7098 96.0217 26.3 96.0217ZM37.946 97.2593C36.5127 97.2593 35.4016 96.8197 34.6127 95.9404C33.8298 95.0552 33.4384 93.8056 33.4384 92.1917C33.4384 90.5356 33.8358 89.2559 34.6308 88.3525C35.4317 87.4492 36.5699 86.9976 38.0453 86.9976C38.5211 86.9976 38.9968 87.0487 39.4726 87.1511C39.9483 87.2535 40.3217 87.3739 40.5927 87.5125L40.132 88.7861C39.8008 88.6536 39.4394 88.5452 39.048 88.4609C38.6566 88.3706 38.3103 88.3254 38.0092 88.3254C35.9978 88.3254 34.9921 89.6082 34.9921 92.1736C34.9921 93.3901 35.236 94.3235 35.7238 94.9739C36.2176 95.6243 36.9463 95.9495 37.9098 95.9495C38.7349 95.9495 39.581 95.7718 40.4481 95.4165V96.7444C39.7857 97.0876 38.9516 97.2593 37.946 97.2593ZM46.0961 96.0217C46.361 96.0217 46.617 96.0037 46.8639 95.9675C47.1108 95.9254 47.3065 95.8832 47.451 95.8411V96.9883C47.2885 97.0666 47.0476 97.1298 46.7284 97.178C46.4152 97.2322 46.1322 97.2593 45.8793 97.2593C43.9642 97.2593 43.0067 96.2506 43.0067 94.2332V88.3435H41.5885V87.6209L43.0067 86.9976L43.639 84.8838H44.5062V87.1782H47.3788V88.3435H44.5062V94.1699C44.5062 94.7661 44.6477 95.2238 44.9308 95.543C45.2138 95.8621 45.6023 96.0217 46.0961 96.0217ZM64.9708 97.0786H63.2183L56.0008 85.9949H55.9285C56.0249 87.2957 56.0731 88.488 56.0731 89.572V97.0786H54.6548V83.8721H56.3892L63.5887 94.9106H63.661C63.6489 94.748 63.6218 94.2271 63.5797 93.3479C63.5375 92.4626 63.5224 91.8303 63.5345 91.4509V83.8721H64.9708V97.0786ZM74.5572 97.0786L74.2591 95.6694H74.1868C73.693 96.2897 73.1992 96.7113 72.7054 96.9341C72.2176 97.1509 71.6063 97.2593 70.8716 97.2593C69.89 97.2593 69.1192 97.0063 68.5591 96.5005C68.0051 95.9946 67.7281 95.275 67.7281 94.3416C67.7281 92.3422 69.3269 91.2944 72.5247 91.198L74.2049 91.1438V90.5295C74.2049 89.7527 74.0362 89.1806 73.699 88.8132C73.3678 88.4399 72.8348 88.2532 72.1001 88.2532C71.2751 88.2532 70.3417 88.5061 69.2998 89.012L68.8391 87.8647C69.3269 87.5998 69.8599 87.392 70.438 87.2415C71.0222 87.0909 71.6063 87.0156 72.1905 87.0156C73.3708 87.0156 74.244 87.2776 74.8101 87.8015C75.3822 88.3254 75.6682 89.1655 75.6682 90.3218V97.0786H74.5572ZM71.1697 96.0217C72.1031 96.0217 72.8348 95.7658 73.3648 95.2539C73.9007 94.742 74.1687 94.0254 74.1687 93.104V92.2097L72.6692 92.2729C71.4768 92.3151 70.6157 92.5018 70.0857 92.833C69.5618 93.1582 69.2998 93.6671 69.2998 94.3596C69.2998 94.9016 69.4624 95.3141 69.7876 95.5972C70.1188 95.8802 70.5795 96.0217 71.1697 96.0217ZM82.0569 96.0217C82.3219 96.0217 82.5778 96.0037 82.8247 95.9675C83.0716 95.9254 83.2673 95.8832 83.4119 95.8411V96.9883C83.2493 97.0666 83.0084 97.1298 82.6892 97.178C82.3761 97.2322 82.093 97.2593 81.8401 97.2593C79.925 97.2593 78.9675 96.2506 78.9675 94.2332V88.3435H77.5493V87.6209L78.9675 86.9976L79.5999 84.8838H80.467V87.1782H83.3396V88.3435H80.467V94.1699C80.467 94.7661 80.6086 95.2238 80.8916 95.543C81.1746 95.8621 81.5631 96.0217 82.0569 96.0217ZM86.9912 97.0786H85.4917V87.1782H86.9912V97.0786ZM85.3652 84.4954C85.3652 84.1521 85.4495 83.9022 85.6181 83.7456C85.7868 83.583 85.9975 83.5017 86.2505 83.5017C86.4913 83.5017 86.6991 83.583 86.8737 83.7456C87.0484 83.9082 87.1357 84.1581 87.1357 84.4954C87.1357 84.8326 87.0484 85.0855 86.8737 85.2542C86.6991 85.4167 86.4913 85.498 86.2505 85.498C85.9975 85.498 85.7868 85.4167 85.6181 85.2542C85.4495 85.0855 85.3652 84.8326 85.3652 84.4954ZM92.4313 97.0786L88.6735 87.1782H90.2814L92.4133 93.0498C92.895 94.4229 93.1781 95.3141 93.2624 95.7236H93.3347C93.4009 95.4045 93.6087 94.745 93.9579 93.7454C94.3133 92.7397 95.1052 90.5506 96.3337 87.1782H97.9416L94.1838 97.0786H92.4313ZM103.806 97.2593C102.343 97.2593 101.187 96.8136 100.338 95.9224C99.4945 95.0311 99.0729 93.7935 99.0729 92.2097C99.0729 90.6139 99.4644 89.3462 100.247 88.4067C101.036 87.4673 102.093 86.9976 103.418 86.9976C104.658 86.9976 105.64 87.4071 106.363 88.2261C107.085 89.0391 107.447 90.114 107.447 91.4509V92.3994H100.627C100.657 93.5617 100.949 94.4439 101.503 95.0461C102.063 95.6484 102.849 95.9495 103.861 95.9495C104.926 95.9495 105.98 95.7266 107.022 95.281V96.6179C106.492 96.8468 105.989 97.0094 105.514 97.1057C105.044 97.2081 104.475 97.2593 103.806 97.2593ZM103.4 88.2532C102.605 88.2532 101.97 88.5121 101.494 89.03C101.024 89.5479 100.747 90.2646 100.663 91.1799H105.839C105.839 90.2345 105.628 89.5118 105.206 89.012C104.785 88.5061 104.183 88.2532 103.4 88.2532Z" fill="url(#paint0_linear_81_216)"/>
<path d="M41.1689 3.68375C40.0427 3.722 38.9695 3.99612 38 4.555C36.062 5.67381 34.9049 7.72656 34.3848 10.156C33.8653 12.5859 33.92 15.4754 34.438 18.7091C34.6377 19.9559 34.9299 21.2671 35.2678 22.6074C33.9381 22.9846 32.6562 23.3883 31.4768 23.8388C28.4168 25.0076 25.888 26.4048 24.0435 28.0702C22.199 29.7357 21 31.7624 21 34.0001C21 36.2377 22.1985 38.266 24.0435 39.9309C25.8875 41.5969 28.4162 42.9941 31.4762 44.1629C32.6556 44.6134 33.9375 45.0161 35.2673 45.3938C34.9294 46.7341 34.6372 48.0452 34.4374 49.2916C33.9195 52.5269 33.8658 55.4153 34.3854 57.8447C34.906 60.2752 36.0615 62.3274 37.9995 63.4462C39.9375 64.565 42.292 64.5406 44.6566 63.7756C47.0206 63.0106 49.4962 61.5193 52.0383 59.4533C53.0179 58.6575 54.0076 57.7501 55 56.7864C55.9913 57.7501 56.9816 58.6575 57.9612 59.4533C60.5027 61.5199 62.9773 63.0111 65.3418 63.7761C67.7059 64.5411 70.062 64.565 72 63.4467C73.938 62.3274 75.0951 60.2752 75.6152 57.8452C76.1347 55.4153 76.0789 52.5263 75.561 49.2921C75.3612 48.0453 75.0701 46.7341 74.7322 45.3938C76.0619 45.0166 77.3438 44.6128 78.5232 44.1629C81.5832 42.9947 84.112 41.5969 85.9565 39.9315C87.801 38.266 89 36.2377 89 34.0001C89 31.7624 87.8015 29.7352 85.9565 28.0702C84.112 26.4053 81.5832 25.0071 78.5232 23.8388C77.3438 23.3889 76.063 22.9846 74.7333 22.6074C75.0712 21.2671 75.3623 19.9554 75.562 18.7091C76.08 15.4754 76.1337 12.5859 75.6141 10.156C75.0945 7.72603 73.9385 5.67381 72 4.555C70.0615 3.43618 67.7075 3.46062 65.3429 4.22562C62.9788 4.99062 60.5032 6.48237 57.9612 8.54787C56.9816 9.34475 55.9903 10.2521 54.9984 11.2158C54.0066 10.2527 53.0168 9.34422 52.0372 8.54787C49.4963 6.48237 47.0228 4.98956 44.6587 4.22456C43.4761 3.84206 42.2957 3.6455 41.1684 3.68268L41.1689 3.68375ZM41.3049 6.62953C42.0115 6.60934 42.8211 6.7395 43.7487 7.03859C45.6027 7.6389 47.826 8.93515 50.1731 10.8423C51.0773 11.5765 52.0022 12.4265 52.934 13.3339C50.9875 15.4377 49.0569 17.8299 47.189 20.4707C43.9681 20.7682 40.9309 21.2442 38.1349 21.8785C37.8162 20.6173 37.5421 19.3923 37.3577 18.2411C36.8796 15.2554 36.869 12.6815 37.277 10.7754C37.6844 8.86981 38.4468 7.71168 39.4785 7.11615C39.9943 6.81865 40.5983 6.64865 41.3049 6.62953ZM68.6956 6.62953C69.4022 6.64918 70.0062 6.81812 70.5221 7.11615C71.5538 7.71115 72.3161 8.86928 72.7236 10.7749C73.131 12.6805 73.122 15.2549 72.6439 18.2411C72.4595 19.3912 72.1859 20.6179 71.8667 21.878C69.0712 21.2442 66.0335 20.7677 62.8115 20.4707C60.9436 17.8304 59.012 15.4377 57.0655 13.3334C57.9973 12.4265 58.9233 11.576 59.8275 10.8418C62.1745 8.93356 64.3978 7.63943 66.2524 7.03912C67.1794 6.7395 67.9896 6.60987 68.6962 6.63006L68.6956 6.62953ZM55 15.4605C56.3909 16.9785 57.7098 18.5609 58.9525 20.2024C57.6541 20.144 56.3403 20.1047 55 20.1047C53.6602 20.1047 52.3464 20.1435 51.0475 20.2024C52.2896 18.5604 53.6085 16.978 55 15.4605ZM55 23.0616C57.117 23.0616 59.1809 23.145 61.1806 23.2954C62.3435 24.9983 63.442 26.7444 64.4738 28.5298C65.5042 30.3164 66.4672 32.1411 67.3606 34.0001C66.4671 35.8586 65.5042 37.683 64.4738 39.4693C63.4418 41.2552 62.3431 43.0018 61.18 44.7053C59.1809 44.8556 57.117 44.9396 55.0005 44.9396C52.9374 44.9391 50.8751 44.8612 48.8178 44.7058C47.6553 43.0021 46.5571 41.2554 45.5257 39.4693C44.4953 37.6833 43.5323 35.8593 42.6389 34.0011C43.5326 32.1422 44.496 30.3175 45.5267 28.5308C46.5587 26.745 47.6574 24.9987 48.8205 23.2954C50.8769 23.1401 52.9378 23.0621 55 23.0616ZM45.0268 23.6795C44.3143 24.7882 43.6271 25.913 42.9656 27.0529C42.309 28.1955 41.6784 29.3529 41.0743 30.5241C40.2737 28.6272 39.5625 26.6938 38.943 24.7303C40.8502 24.3053 42.8806 23.9493 45.0268 23.6795ZM64.9737 23.6795C67.017 23.9345 69.0471 24.2851 71.0576 24.7303C70.4381 26.6942 69.7268 28.6279 68.9262 30.5252C68.3221 29.3534 67.6915 28.1955 67.0349 27.0524C66.3735 25.9124 65.6862 24.7877 64.9737 23.6789V23.6795ZM36.0689 25.4544C36.9178 28.1924 38.0244 31.0612 39.3786 33.999C38.0239 36.9379 36.9189 39.8077 36.0689 42.5457C34.8178 42.1925 33.6198 41.8158 32.5308 41.4004C29.7051 40.3219 27.4712 39.0427 26.024 37.7358C24.5774 36.43 23.9559 35.1911 23.9559 33.9995C23.9559 32.8085 24.5774 31.5707 26.024 30.2648C27.4712 28.958 29.7056 27.6792 32.5308 26.6008C33.6198 26.1848 34.8178 25.8077 36.0689 25.4538V25.4544ZM73.9311 25.4544C75.1827 25.8082 76.3812 26.1854 77.4692 26.6019C80.2955 27.6803 82.5294 28.9585 83.9765 30.2648C85.4231 31.5717 86.0447 32.8095 86.0447 34.0001C86.0447 35.1917 85.4231 36.4305 83.9765 37.7363C82.5294 39.0432 80.2949 40.3214 77.4697 41.4004C76.3807 41.8158 75.1817 42.1919 73.9306 42.5457C73.0816 39.8082 71.9756 36.9395 70.6225 34.0011C71.9766 31.0622 73.0816 28.193 73.9311 25.4544ZM55 27.9396C53.3927 27.9398 51.8514 28.5784 50.7149 29.7149C49.5784 30.8515 48.9398 32.3928 48.9395 34.0001C48.9398 35.6074 49.5785 37.1488 50.7151 38.2854C51.8517 39.4219 53.3932 40.0604 55.0005 40.0606C56.6078 40.0603 58.1491 39.4217 59.2856 38.2852C60.4221 37.1487 61.0607 35.6073 61.061 34.0001C61.0607 32.3927 60.4221 30.8513 59.2855 29.7148C58.1488 28.5782 56.6074 27.9397 55 27.9396ZM68.9262 37.476C69.7265 39.3733 70.4374 41.307 71.0565 43.2709C69.1504 43.6959 67.1199 44.0524 64.9748 44.3228C65.6867 43.2135 66.3735 42.0882 67.0344 40.9477C67.691 39.805 68.3221 38.6474 68.9262 37.476ZM41.0743 37.4771C41.6784 38.6481 42.309 39.8053 42.9656 40.9477C43.6274 42.0878 44.3146 43.213 45.0268 44.3222C42.9835 44.0679 40.9532 43.717 38.943 43.2709C39.5625 41.3074 40.2737 39.374 41.0743 37.4771ZM38.1339 46.1232C40.9293 46.7564 43.967 47.2319 47.189 47.5289C49.0569 50.1708 50.9885 52.5635 52.935 54.6689C52.0032 55.5747 51.0783 56.4247 50.1741 57.1604C47.8271 59.0676 45.6017 60.3639 43.7471 60.9642C41.893 61.5634 40.5091 61.4811 39.4774 60.8856C38.4457 60.2895 37.6844 59.1324 37.277 57.2268C36.869 55.3207 36.8791 52.7468 37.3577 49.7596C37.5421 48.6094 37.8146 47.3833 38.1339 46.1232ZM71.8656 46.1232C72.1843 47.3833 72.4585 48.6094 72.6428 49.7596C73.1209 52.7468 73.1316 55.3207 72.7236 57.2268C72.3161 59.133 71.5538 60.2906 70.5221 60.8872C69.4904 61.4822 68.107 61.5634 66.2524 60.9631C64.3978 60.3628 62.1745 59.0666 59.8275 57.1594C58.9238 56.4247 57.9978 55.5747 57.0666 54.6678C59.0131 52.5641 60.9436 50.1702 62.8115 47.5289C66.0325 47.2319 69.0696 46.7564 71.8656 46.1232ZM51.0475 47.7977C52.3643 47.8605 53.6823 47.8935 55.0005 47.8965C56.319 47.8935 57.6372 47.8605 58.9541 47.7977C57.7117 49.4405 56.3924 51.0236 55.0005 52.5417C53.609 51.0236 52.2895 49.4404 51.0475 47.7977Z" fill="url(#paint1_linear_81_216)"/>
<defs>
<linearGradient id="paint0_linear_81_216" x1="54.5" y1="78.0786" x2="54.5" y2="102.079" gradientUnits="userSpaceOnUse">
<stop stop-color="#A7CF9E"/>
<stop offset="1" stop-color="#D2D2AF"/>
</linearGradient>
<linearGradient id="paint1_linear_81_216" x1="55" y1="3.67822" x2="55" y2="64.3223" gradientUnits="userSpaceOnUse">
<stop stop-color="#A7CF9E"/>
<stop offset="1" stop-color="#D2D2AF"/>
</linearGradient>
</defs>
</svg>
