<svg width="58" height="94" viewBox="0 0 58 94" fill="none" xmlns="http://www.w3.org/2000/svg">
<path d="M8.35132 83.5078V89H6.81567V75.7935H10.438C12.0579 75.7935 13.2533 76.1036 14.0242 76.7239C14.801 77.3442 15.1895 78.2776 15.1895 79.5242C15.1895 81.2706 14.3042 82.4509 12.5337 83.0652L16.1199 89H14.3042L11.1064 83.5078H8.35132ZM8.35132 82.189H10.4561C11.54 82.189 12.335 81.9752 12.8408 81.5476C13.3467 81.114 13.5996 80.4666 13.5996 79.6055C13.5996 78.7323 13.3407 78.1029 12.8228 77.7175C12.3109 77.3321 11.4858 77.1394 10.3477 77.1394H8.35132V82.189ZM22.3008 89.1807C20.8374 89.1807 19.6811 88.735 18.832 87.8438C17.9889 86.9525 17.5674 85.7149 17.5674 84.1311C17.5674 82.5352 17.9588 81.2676 18.7417 80.3281C19.5306 79.3887 20.5875 78.9189 21.9123 78.9189C23.1529 78.9189 24.1345 79.3285 24.8571 80.1475C25.5798 80.9605 25.9411 82.0354 25.9411 83.3723V84.3208H19.1211C19.1512 85.4831 19.4432 86.3653 19.9973 86.9675C20.5573 87.5697 21.3432 87.8708 22.3549 87.8708C23.4209 87.8708 24.4747 87.648 25.5166 87.2024V88.5393C24.9866 88.7681 24.4838 88.9307 24.008 89.0271C23.5383 89.1295 22.9692 89.1807 22.3008 89.1807ZM21.8943 80.1746C21.0993 80.1746 20.464 80.4335 19.9883 80.9514C19.5185 81.4693 19.2415 82.186 19.1572 83.1013H24.3332C24.3332 82.1558 24.1224 81.4332 23.7009 80.9334C23.2793 80.4275 22.6771 80.1746 21.8943 80.1746ZM34.6874 89L34.3893 87.5908H34.3171C33.8233 88.2111 33.3294 88.6326 32.8356 88.8555C32.3478 89.0723 31.7366 89.1807 31.0019 89.1807C30.0203 89.1807 29.2495 88.9277 28.6894 88.4219C28.1354 87.916 27.8583 87.1964 27.8583 86.2629C27.8583 84.2636 29.4572 83.2157 32.655 83.1194L34.3351 83.0652V82.4509C34.3351 81.6741 34.1665 81.102 33.8293 80.7346C33.4981 80.3612 32.9651 80.1746 32.2304 80.1746C31.4054 80.1746 30.4719 80.4275 29.4301 80.9334L28.9694 79.7861C29.4572 79.5212 29.9902 79.3134 30.5683 79.1628C31.1524 79.0123 31.7366 78.937 32.3207 78.937C33.5011 78.937 34.3743 79.199 34.9404 79.7229C35.5125 80.2468 35.7985 81.0869 35.7985 82.2432V89H34.6874ZM31.3 87.9431C32.2334 87.9431 32.9651 87.6872 33.4951 87.1753C34.031 86.6634 34.299 85.9468 34.299 85.0254V84.1311L32.7995 84.1943C31.6071 84.2365 30.746 84.4232 30.216 84.7544C29.6921 85.0796 29.4301 85.5885 29.4301 86.281C29.4301 86.823 29.5927 87.2355 29.9179 87.5186C30.2491 87.8016 30.7098 87.9431 31.3 87.9431ZM42.946 89.1807C41.5127 89.1807 40.4016 88.741 39.6127 87.8618C38.8298 86.9766 38.4384 85.727 38.4384 84.113C38.4384 82.457 38.8358 81.1772 39.6308 80.2739C40.4317 79.3706 41.5699 78.9189 43.0453 78.9189C43.5211 78.9189 43.9968 78.9701 44.4726 79.0725C44.9483 79.1749 45.3217 79.2953 45.5927 79.4338L45.132 80.7075C44.8008 80.575 44.4394 80.4666 44.048 80.3823C43.6566 80.292 43.3103 80.2468 43.0092 80.2468C40.9978 80.2468 39.9921 81.5295 39.9921 84.095C39.9921 85.3114 40.236 86.2449 40.7238 86.8953C41.2176 87.5457 41.9463 87.8708 42.9098 87.8708C43.7349 87.8708 44.581 87.6932 45.4481 87.3379V88.6658C44.7857 89.009 43.9516 89.1807 42.946 89.1807ZM51.0961 87.9431C51.361 87.9431 51.617 87.925 51.8639 87.8889C52.1108 87.8468 52.3065 87.8046 52.451 87.7625V88.9097C52.2885 88.988 52.0476 89.0512 51.7284 89.0994C51.4152 89.1536 51.1322 89.1807 50.8793 89.1807C48.9642 89.1807 48.0067 88.172 48.0067 86.1545V80.2649H46.5885V79.5422L48.0067 78.9189L48.639 76.8052H49.5062V79.0996H52.3788V80.2649H49.5062V86.0913C49.5062 86.6875 49.6477 87.1452 49.9308 87.4644C50.2138 87.7835 50.6023 87.9431 51.0961 87.9431Z" fill="url(#paint0_linear_81_150)"/>
<g clip-path="url(#clip0_81_150)">
<mask id="mask0_81_150" style="mask-type:luminance" maskUnits="userSpaceOnUse" x="0" y="0" width="58" height="58">
<path d="M0 0H58V58H0V0Z" fill="white"/>
</mask>
<g mask="url(#mask0_81_150)">
<path d="M58 28.2487C58 24.4062 53.1884 20.7643 45.8103 18.5072C47.5141 10.9889 46.7577 5.00524 43.4227 3.08883C42.6144 2.63678 41.6999 2.40901 40.774 2.42908V5.06324C41.3178 5.06324 41.7552 5.17199 42.1225 5.37258C43.7296 6.29574 44.428 9.80474 43.8843 14.3215C43.7538 15.4332 43.5411 16.6028 43.2801 17.7967C40.809 17.2033 38.3015 16.773 35.7739 16.5086C34.2672 14.4316 32.6243 12.4568 30.856 10.5974C34.7106 7.01591 38.3283 5.05358 40.7885 5.05358V2.41699C37.5357 2.41699 33.2799 4.73458 28.9758 8.75349C24.6742 4.76116 20.416 2.46533 17.1656 2.46533V5.09949C19.6137 5.09949 23.2435 7.05216 27.0981 10.6095C25.4427 12.3495 23.7873 14.3215 22.214 16.5086C19.6811 16.7692 17.1691 17.2037 14.6958 17.8087C14.4251 16.6262 14.2197 15.4839 14.0795 14.3819C13.5237 9.86274 14.21 6.35374 15.8074 5.42091C16.1603 5.20824 16.6218 5.11158 17.1656 5.11158V2.47741C16.1748 2.47741 15.2733 2.69008 14.4952 3.13716C11.1723 5.05358 10.4279 11.0227 12.1413 18.5192C4.78742 20.7909 0 24.4183 0 28.2487C0 32.0912 4.81158 35.7332 12.1897 37.9879C10.4859 45.5086 11.2423 51.4922 14.5773 53.4062C15.3458 53.8557 16.2448 54.0684 17.2357 54.0684C20.4885 54.0684 24.7443 51.7508 29.0483 47.7319C33.35 51.7267 37.6058 54.0201 40.8586 54.0201C41.7914 54.0375 42.7124 53.8091 43.529 53.3579C46.8519 51.4439 47.5963 45.4747 45.8828 37.9782C53.2126 35.7211 58 32.0792 58 28.2487ZM42.6058 20.3632C42.1467 21.9433 41.6145 23.5013 41.0108 25.0322C40.0245 23.1094 38.9395 21.2389 37.7604 19.4279C39.4424 19.6744 41.0584 19.9862 42.6083 20.3632M37.1949 32.954C36.3096 34.4993 35.359 36.0062 34.3457 37.4707C30.7986 37.7828 27.2311 37.7869 23.6833 37.4828C21.6488 34.5757 19.8692 31.4984 18.3643 28.285C19.8658 25.0635 21.6379 21.9752 23.6616 19.0533C27.2078 18.7406 30.7744 18.7357 34.3215 19.0388C35.3043 20.4485 36.2581 21.9469 37.1828 23.5338C38.0802 25.0821 38.9003 26.6497 39.643 28.2367C38.8914 29.8417 38.0747 31.4154 37.1949 32.954ZM41.0108 31.417C41.6488 33.0023 42.195 34.5852 42.6421 36.1222C41.0954 36.5017 39.4618 36.8207 37.7725 37.0672C38.9453 35.2388 40.0261 33.3531 41.0108 31.417ZM29.0242 44.032C27.9222 42.8945 26.8266 41.633 25.7375 40.2475C26.8008 40.2958 27.8883 40.3321 28.9879 40.3321C30.1012 40.3337 31.1967 40.3055 32.2746 40.2475C31.2112 41.6322 30.1117 42.8962 29.0242 44.032ZM20.2275 37.0672C18.598 36.8314 16.9803 36.5202 15.3797 36.1343C15.8171 34.6094 16.3608 33.0362 16.9747 31.4653C17.4604 32.4078 17.9703 33.3552 18.5262 34.3025C19.082 35.2482 19.6491 36.1698 20.2275 37.0672ZM28.9638 12.4655C30.0658 13.6029 31.1613 14.8644 32.2504 16.25C31.1871 16.2017 30.0996 16.1654 29 16.1654C27.8867 16.1638 26.7912 16.192 25.7133 16.25C26.7767 14.8652 27.8763 13.6013 28.9638 12.4655ZM20.2154 19.4303C19.0429 21.2547 17.9622 23.1364 16.9771 25.0684C16.3567 23.5276 15.8123 21.9573 15.3458 20.3632C16.8925 19.9958 18.5262 19.6768 20.2154 19.4303ZM9.51683 34.23C5.33117 32.4465 2.6245 30.1047 2.6245 28.2487C2.6245 26.3927 5.33117 24.0389 9.51683 22.2675C10.5318 21.8301 11.6435 21.4386 12.7914 21.0737C13.4657 23.3888 14.3526 25.8007 15.4498 28.2729C14.4127 30.5977 13.5366 32.991 12.8277 35.4359C11.7052 35.0878 10.6002 34.6854 9.51683 34.23ZM15.8775 51.1225C14.2704 50.2042 13.572 46.6903 14.1158 42.176C14.2463 41.0643 14.4589 39.8922 14.7199 38.6984C17.0351 39.2663 19.5653 39.7037 22.2261 39.9889C23.7328 42.0659 25.3757 44.0406 27.144 45.9001C23.2894 49.4816 19.6717 51.4439 17.2115 51.4439C16.7477 51.4458 16.2903 51.3364 15.8775 51.1249M43.9205 42.118C44.4763 46.6347 43.79 50.1462 42.1926 51.079C41.8398 51.2917 41.3782 51.3859 40.8344 51.3859C38.3863 51.3859 34.7565 49.4357 30.9019 45.8759C32.6635 44.025 34.2954 42.0547 35.786 39.9792C38.3189 39.7186 40.8309 39.2842 43.3043 38.6791C43.5798 39.8713 43.7852 41.0176 43.9205 42.118ZM48.4711 34.2324C47.4561 34.6698 46.3444 35.0613 45.1965 35.4262C44.4737 32.9693 43.5856 30.5641 42.5382 28.227C43.6257 25.7692 44.4981 23.3695 45.1603 21.064C46.3331 21.4297 47.4408 21.8317 48.4832 22.2699C52.6688 24.0534 55.3755 26.3952 55.3755 28.2512C55.3634 30.1072 52.6567 32.461 48.4711 34.2324Z" fill="url(#paint1_linear_81_150)"/>
<path d="M28.9875 33.6516C30.4207 33.6516 31.7951 33.0823 32.8085 32.0689C33.8219 31.0555 34.3912 29.681 34.3912 28.2479C34.3912 26.8148 33.8219 25.4403 32.8085 24.4269C31.7951 23.4136 30.4207 22.8442 28.9875 22.8442C27.5544 22.8442 26.1799 23.4136 25.1666 24.4269C24.1532 25.4403 23.5839 26.8148 23.5839 28.2479C23.5839 29.681 24.1532 31.0555 25.1666 32.0689C26.1799 33.0823 27.5544 33.6516 28.9875 33.6516Z" fill="url(#paint2_linear_81_150)"/>
</g>
</g>
<defs>
<linearGradient id="paint0_linear_81_150" x1="29" y1="70" x2="29" y2="94" gradientUnits="userSpaceOnUse">
<stop stop-color="#A7CF9E"/>
<stop offset="1" stop-color="#EBEBEB"/>
</linearGradient>
<linearGradient id="paint1_linear_81_150" x1="29" y1="2.41699" x2="29" y2="54.0684" gradientUnits="userSpaceOnUse">
<stop stop-color="#A7CF9E"/>
<stop offset="1" stop-color="#D2D2AF"/>
</linearGradient>
<linearGradient id="paint2_linear_81_150" x1="28.9875" y1="22.8442" x2="28.9875" y2="33.6516" gradientUnits="userSpaceOnUse">
<stop stop-color="#A7CF9E"/>
<stop offset="1" stop-color="#D2D2AF"/>
</linearGradient>
<clipPath id="clip0_81_150">
<rect width="58" height="58" fill="white"/>
</clipPath>
</defs>
</svg>
