<svg width="101" height="100" viewBox="0 0 101 100" fill="none" xmlns="http://www.w3.org/2000/svg">
<path d="M5.88061 95H4.34497V83.1575H0.162598V81.7935H10.063V83.1575H5.88061V95ZM10.3542 85.0996H11.9621L14.1301 90.7454C14.6058 92.0341 14.9009 92.9645 15.0153 93.5366H15.0876C15.1659 93.2295 15.3285 92.7056 15.5754 91.9648C15.8283 91.2181 16.6473 88.9297 18.0324 85.0996H19.6403L15.3857 96.373C14.9642 97.4871 14.4703 98.276 13.9043 98.7397C13.3442 99.2095 12.6547 99.4443 11.8357 99.4443C11.378 99.4443 10.9263 99.3931 10.4807 99.2908V98.0894C10.8119 98.1616 11.1823 98.1978 11.5918 98.1978C12.6216 98.1978 13.3563 97.6196 13.7959 96.4634L14.3469 95.0542L10.3542 85.0996ZM25.9477 95.1807C25.3033 95.1807 24.7132 95.0632 24.1772 94.8284C23.6472 94.5875 23.2016 94.2201 22.8403 93.7263H22.7319C22.8041 94.3044 22.8403 94.8525 22.8403 95.3704V99.4443H21.3408V85.0996H22.5602L22.768 86.4546H22.8403C23.2257 85.9126 23.6743 85.5212 24.1862 85.2803C24.6981 85.0394 25.2853 84.9189 25.9477 84.9189C27.2605 84.9189 28.2722 85.3676 28.9828 86.2649C29.6995 87.1622 30.0578 88.4208 30.0578 90.0408C30.0578 91.6667 29.6935 92.9314 28.9648 93.8347C28.2421 94.732 27.2364 95.1807 25.9477 95.1807ZM25.7309 86.1926C24.7192 86.1926 23.9875 86.4727 23.5358 87.0327C23.0842 87.5928 22.8523 88.4841 22.8403 89.7065V90.0408C22.8403 91.4319 23.0721 92.4285 23.5358 93.0308C23.9995 93.627 24.7433 93.925 25.767 93.925C26.6222 93.925 27.2906 93.5788 27.7724 92.8862C28.2602 92.1937 28.5041 91.2392 28.5041 90.0227C28.5041 88.7882 28.2602 87.8427 27.7724 87.1863C27.2906 86.5238 26.6101 86.1926 25.7309 86.1926ZM36.9613 95.1807C35.498 95.1807 34.3417 94.735 33.4926 93.8438C32.6495 92.9525 32.2279 91.7149 32.2279 90.1311C32.2279 88.5352 32.6194 87.2676 33.4023 86.3281C34.1912 85.3887 35.248 84.9189 36.5729 84.9189C37.8135 84.9189 38.7951 85.3285 39.5177 86.1475C40.2404 86.9605 40.6017 88.0354 40.6017 89.3723V90.3208H33.7816C33.8118 91.4831 34.1038 92.3653 34.6579 92.9675C35.2179 93.5697 36.0038 93.8708 37.0155 93.8708C38.0815 93.8708 39.1353 93.648 40.1772 93.2024V94.5393C39.6472 94.7681 39.1444 94.9307 38.6686 95.0271C38.1989 95.1295 37.6298 95.1807 36.9613 95.1807ZM36.5548 86.1746C35.7599 86.1746 35.1246 86.4335 34.6488 86.9514C34.1791 87.4693 33.9021 88.186 33.8178 89.1013H38.9938C38.9938 88.1558 38.783 87.4332 38.3615 86.9334C37.9399 86.4275 37.3377 86.1746 36.5548 86.1746ZM50.9379 91.4861C50.9379 92.6484 50.5163 93.5547 49.6732 94.2051C48.8301 94.8555 47.6859 95.1807 46.2406 95.1807C44.6748 95.1807 43.4704 94.9789 42.6273 94.5754V93.094C43.1693 93.3228 43.7595 93.5035 44.3978 93.636C45.0362 93.7685 45.6685 93.8347 46.2948 93.8347C47.3186 93.8347 48.0894 93.642 48.6073 93.2566C49.1252 92.8652 49.3842 92.3232 49.3842 91.6306C49.3842 91.1729 49.2908 90.7996 49.1041 90.5105C48.9235 90.2154 48.6163 89.9444 48.1827 89.6975C47.7552 89.4506 47.1018 89.1706 46.2225 88.8574C44.994 88.4178 44.1148 87.8969 43.5848 87.2947C43.0609 86.6925 42.799 85.9066 42.799 84.937C42.799 83.9193 43.1814 83.1093 43.9462 82.5071C44.711 81.9049 45.7227 81.6038 46.9813 81.6038C48.2941 81.6038 49.5016 81.8446 50.6036 82.3264L50.1249 83.6633C49.0349 83.2056 47.975 82.9768 46.9452 82.9768C46.1322 82.9768 45.4969 83.1514 45.0392 83.5007C44.5815 83.85 44.3527 84.3348 44.3527 84.9551C44.3527 85.4128 44.437 85.7891 44.6056 86.0842C44.7742 86.3733 45.0573 86.6413 45.4547 86.8882C45.8582 87.1291 46.4725 87.3971 47.2975 87.6921C48.6826 88.186 49.6341 88.7159 50.152 89.282C50.6759 89.8481 50.9379 90.5828 50.9379 91.4861ZM57.462 95.1807C56.0287 95.1807 54.9177 94.741 54.1288 93.8618C53.3459 92.9766 52.9544 91.727 52.9544 90.113C52.9544 88.457 53.3519 87.1772 54.1468 86.2739C54.9478 85.3706 56.0859 84.9189 57.5614 84.9189C58.0371 84.9189 58.5129 84.9701 58.9886 85.0725C59.4644 85.1749 59.8377 85.2953 60.1087 85.4338L59.648 86.7075C59.3168 86.575 58.9555 86.4666 58.5641 86.3823C58.1726 86.292 57.8263 86.2468 57.5252 86.2468C55.5138 86.2468 54.5081 87.5295 54.5081 90.095C54.5081 91.3114 54.752 92.2449 55.2398 92.8953C55.7337 93.5457 56.4623 93.8708 57.4259 93.8708C58.2509 93.8708 59.097 93.6932 59.9642 93.3379V94.6658C59.3018 95.009 58.4677 95.1807 57.462 95.1807ZM66.931 84.9189C67.3706 84.9189 67.765 84.9551 68.1143 85.0273L67.9066 86.4185C67.497 86.3281 67.1357 86.283 66.8226 86.283C66.0216 86.283 65.3351 86.6082 64.763 87.2585C64.1969 87.9089 63.9139 88.7189 63.9139 89.6885V95H62.4144V85.0996H63.6519L63.8235 86.9334H63.8958C64.2632 86.289 64.7058 85.7922 65.2237 85.4429C65.7416 85.0936 66.3107 84.9189 66.931 84.9189ZM71.5581 95H70.0586V85.0996H71.5581V95ZM69.9322 82.4167C69.9322 82.0735 70.0165 81.8236 70.1851 81.667C70.3537 81.5044 70.5645 81.4231 70.8174 81.4231C71.0583 81.4231 71.2661 81.5044 71.4407 81.667C71.6153 81.8296 71.7027 82.0795 71.7027 82.4167C71.7027 82.754 71.6153 83.0069 71.4407 83.1755C71.2661 83.3381 71.0583 83.4194 70.8174 83.4194C70.5645 83.4194 70.3537 83.3381 70.1851 83.1755C70.0165 83.0069 69.9322 82.754 69.9322 82.4167ZM79.4373 95.1807C78.7929 95.1807 78.2027 95.0632 77.6667 94.8284C77.1368 94.5875 76.6912 94.2201 76.3298 93.7263H76.2214C76.2937 94.3044 76.3298 94.8525 76.3298 95.3704V99.4443H74.8303V85.0996H76.0498L76.2576 86.4546H76.3298C76.7153 85.9126 77.1639 85.5212 77.6758 85.2803C78.1877 85.0394 78.7748 84.9189 79.4373 84.9189C80.7501 84.9189 81.7618 85.3676 82.4724 86.2649C83.189 87.1622 83.5474 88.4208 83.5474 90.0408C83.5474 91.6667 83.183 92.9314 82.4543 93.8347C81.7317 94.732 80.726 95.1807 79.4373 95.1807ZM79.2205 86.1926C78.2087 86.1926 77.4771 86.4727 77.0254 87.0327C76.5737 87.5928 76.3419 88.4841 76.3298 89.7065V90.0408C76.3298 91.4319 76.5617 92.4285 77.0254 93.0308C77.4891 93.627 78.2328 93.925 79.2566 93.925C80.1117 93.925 80.7802 93.5788 81.262 92.8862C81.7498 92.1937 81.9937 91.2392 81.9937 90.0227C81.9937 88.7882 81.7498 87.8427 81.262 87.1863C80.7802 86.5238 80.0997 86.1926 79.2205 86.1926ZM89.4663 93.9431C89.7313 93.9431 89.9872 93.925 90.2341 93.8889C90.481 93.8468 90.6767 93.8046 90.8213 93.7625V94.9097C90.6587 94.988 90.4178 95.0512 90.0986 95.0994C89.7855 95.1536 89.5024 95.1807 89.2495 95.1807C87.3344 95.1807 86.3769 94.172 86.3769 92.1545V86.2649H84.9587V85.5422L86.3769 84.9189L87.0092 82.8052H87.8764V85.0996H90.749V86.2649H87.8764V92.0913C87.8764 92.6875 88.018 93.1452 88.301 93.4644C88.584 93.7835 88.9725 93.9431 89.4663 93.9431ZM99.2875 92.2991C99.2875 93.2205 98.9443 93.9311 98.2578 94.4309C97.5712 94.9307 96.6077 95.1807 95.3671 95.1807C94.0543 95.1807 93.0305 94.9729 92.2958 94.5574V93.1663C92.7716 93.4071 93.2805 93.5968 93.8224 93.7354C94.3705 93.8739 94.8974 93.9431 95.4033 93.9431C96.1861 93.9431 96.7883 93.8197 97.2099 93.5728C97.6314 93.3198 97.8422 92.9374 97.8422 92.4255C97.8422 92.0401 97.6736 91.7119 97.3364 91.4409C97.0051 91.1639 96.3548 90.8387 95.3852 90.4653C94.4638 90.1221 93.8074 89.824 93.416 89.571C93.0305 89.3121 92.7415 89.02 92.5488 88.6948C92.3621 88.3696 92.2687 87.9812 92.2687 87.5295C92.2687 86.7226 92.5969 86.0872 93.2534 85.6235C93.9098 85.1538 94.8101 84.9189 95.9543 84.9189C97.0202 84.9189 98.062 85.1357 99.0798 85.5693L98.5468 86.7888C97.5532 86.3793 96.6529 86.1746 95.8459 86.1746C95.1353 86.1746 94.5993 86.286 94.238 86.5088C93.8766 86.7316 93.696 87.0387 93.696 87.4302C93.696 87.6952 93.7622 87.921 93.8947 88.1077C94.0332 88.2944 94.253 88.472 94.5541 88.6406C94.8552 88.8092 95.4334 89.0531 96.2885 89.3723C97.4628 89.7999 98.2547 90.2305 98.6642 90.6641C99.0798 91.0977 99.2875 91.6427 99.2875 92.2991Z" fill="url(#paint0_linear_81_177)"/>
<path d="M68.1875 10.3125H33.8125C30.7749 10.3125 28.3125 12.7749 28.3125 15.8125V50.1875C28.3125 53.2251 30.7749 55.6875 33.8125 55.6875H68.1875C71.2251 55.6875 73.6875 53.2251 73.6875 50.1875V15.8125C73.6875 12.7749 71.2251 10.3125 68.1875 10.3125Z" stroke="url(#paint1_linear_81_177)" stroke-width="4.125" stroke-linecap="round" stroke-linejoin="round"/>
<path d="M65.4375 30.9375H59.9375C59.2082 30.9375 58.5087 31.2272 57.993 31.743C57.4772 32.2587 57.1875 32.9582 57.1875 33.6875V36.4375C57.1875 37.1668 57.4772 37.8663 57.993 38.382C58.5087 38.8978 59.2082 39.1875 59.9375 39.1875H62.6875C63.4168 39.1875 64.1163 39.4772 64.632 39.993C65.1478 40.5087 65.4375 41.2082 65.4375 41.9375V44.6875C65.4375 45.4168 65.1478 46.1163 64.632 46.632C64.1163 47.1478 63.4168 47.4375 62.6875 47.4375H57.1875M44.125 30.9375V47.4375M38.625 30.9375H49.625" stroke="url(#paint2_linear_81_177)" stroke-width="4.125" stroke-linecap="round" stroke-linejoin="round"/>
<defs>
<linearGradient id="paint0_linear_81_177" x1="50.5" y1="76" x2="50.5" y2="100" gradientUnits="userSpaceOnUse">
<stop stop-color="#A7CF9E"/>
<stop offset="1" stop-color="#EBEBEB"/>
</linearGradient>
<linearGradient id="paint1_linear_81_177" x1="51" y1="10.3125" x2="51" y2="55.6875" gradientUnits="userSpaceOnUse">
<stop stop-color="#A7CF9E"/>
<stop offset="1" stop-color="#D2D2AF"/>
</linearGradient>
<linearGradient id="paint2_linear_81_177" x1="52.0312" y1="30.9375" x2="52.0312" y2="47.4375" gradientUnits="userSpaceOnUse">
<stop stop-color="#A7CF9E"/>
<stop offset="1" stop-color="#D2D2AF"/>
</linearGradient>
</defs>
</svg>
