<svg width="66" height="100" viewBox="0 0 66 100" fill="none" xmlns="http://www.w3.org/2000/svg">
<path d="M14.3574 88.2703C14.3574 90.4503 13.7642 92.1184 12.5779 93.2747C11.3975 94.4249 9.69629 95 7.47412 95H3.81567V81.7935H7.86255C9.9161 81.7935 11.512 82.3626 12.6501 83.5007C13.7883 84.6389 14.3574 86.2288 14.3574 88.2703ZM12.7314 88.3245C12.7314 86.6021 12.2979 85.3044 11.4307 84.4312C10.5695 83.5579 9.28678 83.1213 7.58252 83.1213H5.35132V93.6721H7.22119C9.05192 93.6721 10.428 93.2235 11.3494 92.3262C12.2708 91.4229 12.7314 90.0889 12.7314 88.3245ZM25.7234 90.0408C25.7234 91.6547 25.3169 92.9163 24.5039 93.8257C23.6909 94.729 22.5678 95.1807 21.1345 95.1807C20.2492 95.1807 19.4633 94.9729 18.7768 94.5574C18.0903 94.1418 17.5604 93.5457 17.187 92.7688C16.8136 91.9919 16.6269 91.0826 16.6269 90.0408C16.6269 88.4268 17.0304 87.1712 17.8374 86.2739C18.6443 85.3706 19.7645 84.9189 21.1977 84.9189C22.5828 84.9189 23.6819 85.3796 24.4948 86.301C25.3139 87.2224 25.7234 88.469 25.7234 90.0408ZM18.1806 90.0408C18.1806 91.3054 18.4336 92.269 18.9394 92.9314C19.4453 93.5938 20.189 93.925 21.1706 93.925C22.1522 93.925 22.896 93.5968 23.4018 92.9404C23.9137 92.278 24.1696 91.3114 24.1696 90.0408C24.1696 88.7821 23.9137 87.8276 23.4018 87.1772C22.896 86.5208 22.1462 86.1926 21.1526 86.1926C20.1709 86.1926 19.4302 86.5148 18.9304 87.1592C18.4306 87.8035 18.1806 88.7641 18.1806 90.0408ZM32.4101 95.1807C30.9768 95.1807 29.8657 94.741 29.0768 93.8618C28.294 92.9766 27.9025 91.727 27.9025 90.113C27.9025 88.457 28.3 87.1772 29.0949 86.2739C29.8959 85.3706 31.034 84.9189 32.5095 84.9189C32.9852 84.9189 33.461 84.9701 33.9367 85.0725C34.4125 85.1749 34.7858 85.2953 35.0568 85.4338L34.5961 86.7075C34.2649 86.575 33.9036 86.4666 33.5121 86.3823C33.1207 86.292 32.7744 86.2468 32.4733 86.2468C30.4619 86.2468 29.4562 87.5295 29.4562 90.095C29.4562 91.3114 29.7001 92.2449 30.1879 92.8953C30.6817 93.5457 31.4104 93.8708 32.374 93.8708C33.199 93.8708 34.0451 93.6932 34.9123 93.3379V94.6658C34.2499 95.009 33.4158 95.1807 32.4101 95.1807ZM38.8439 89.9324C39.1029 89.565 39.4973 89.0833 40.0273 88.4871L43.225 85.0996H45.0045L40.9938 89.3181L45.2846 95H43.4689L39.9731 90.3208L38.8439 91.2964V95H37.3625V80.9443H38.8439V88.3967C38.8439 88.7279 38.8198 89.2398 38.7716 89.9324H38.8439ZM51.3571 95.1807C49.8937 95.1807 48.7374 94.735 47.8883 93.8438C47.0452 92.9525 46.6237 91.7149 46.6237 90.1311C46.6237 88.5352 47.0151 87.2676 47.798 86.3281C48.5869 85.3887 49.6438 84.9189 50.9686 84.9189C52.2092 84.9189 53.1908 85.3285 53.9135 86.1475C54.6361 86.9605 54.9974 88.0354 54.9974 89.3723V90.3208H48.1774C48.2075 91.4831 48.4996 92.3653 49.0536 92.9675C49.6136 93.5697 50.3995 93.8708 51.4113 93.8708C52.4772 93.8708 53.531 93.648 54.5729 93.2024V94.5393C54.0429 94.7681 53.5401 94.9307 53.0643 95.0271C52.5946 95.1295 52.0255 95.1807 51.3571 95.1807ZM50.9506 86.1746C50.1556 86.1746 49.5203 86.4335 49.0446 86.9514C48.5748 87.4693 48.2978 88.186 48.2135 89.1013H53.3895C53.3895 88.1558 53.1788 87.4332 52.7572 86.9334C52.3357 86.4275 51.7334 86.1746 50.9506 86.1746ZM62.172 84.9189C62.6116 84.9189 63.006 84.9551 63.3553 85.0273L63.1476 86.4185C62.738 86.3281 62.3767 86.283 62.0636 86.283C61.2626 86.283 60.5761 86.6082 60.004 87.2585C59.4379 87.9089 59.1549 88.7189 59.1549 89.6885V95H57.6554V85.0996H58.8929L59.0645 86.9334H59.1368C59.5042 86.289 59.9468 85.7922 60.4647 85.4429C60.9826 85.0936 61.5517 84.9189 62.172 84.9189Z" fill="url(#paint0_linear_81_191)"/>
<path d="M59.9637 27.7119C58.6372 26.8383 57.0601 26.4257 55.4757 26.5377C54.6977 26.5397 53.9212 26.6078 53.1547 26.7412C52.9469 25.5391 52.49 24.3938 51.8132 23.3789C51.1364 22.3639 50.2548 21.5018 49.225 20.8479L48.4357 20.3887L47.9242 21.1312C47.2829 22.1361 46.8092 23.2385 46.5217 24.3954C46.2498 25.4205 46.191 26.4904 46.349 27.539C46.507 28.5876 46.8784 29.5927 47.4402 30.4922C46.1798 31.0709 44.8191 31.3996 43.4335 31.4602H7.2132C6.98837 31.4594 6.76562 31.5032 6.55776 31.5889C6.34991 31.6746 6.16105 31.8006 6.00207 31.9595C5.84309 32.1185 5.71713 32.3074 5.63142 32.5152C5.54572 32.7231 5.50197 32.9458 5.5027 33.1707C5.45381 36.3444 5.98984 39.4999 7.08395 42.4794C8.07533 45.4141 10.0139 47.936 12.595 49.6487C16.3351 51.5403 20.4996 52.4363 24.6867 52.2502C26.9373 52.2496 29.1832 52.0443 31.3967 51.6369C34.4813 51.0813 37.4482 50.0024 40.1692 48.4469C42.4102 47.149 44.4256 45.4958 46.1367 43.5519C48.6764 40.5732 50.6562 37.1596 51.9804 33.4759H52.4892C53.6176 33.523 54.7439 33.3416 55.8005 32.9428C56.8571 32.544 57.8223 31.9359 58.6382 31.1549C59.3471 30.4809 59.904 29.6634 60.2717 28.7569L60.4999 28.0942L59.9637 27.7119Z" fill="url(#paint1_linear_81_191)"/>
<path opacity="0.25" d="M10.5793 30.4151H15.4275C15.4846 30.4155 15.5411 30.4045 15.5938 30.3828C15.6466 30.361 15.6944 30.329 15.7346 30.2885C15.7748 30.2481 15.8066 30.2 15.828 30.1471C15.8494 30.0943 15.86 30.0377 15.8593 29.9806V25.6439C15.8597 25.5871 15.8487 25.5308 15.8272 25.4782C15.8056 25.4257 15.7738 25.3779 15.7336 25.3378C15.6935 25.2976 15.6457 25.2658 15.5932 25.2443C15.5406 25.2227 15.4843 25.2118 15.4275 25.2121H10.5793C10.5223 25.2114 10.4657 25.222 10.4128 25.2434C10.3599 25.2649 10.3118 25.2966 10.2714 25.3368C10.2309 25.377 10.1989 25.4249 10.1772 25.4776C10.1554 25.5303 10.1444 25.5868 10.1448 25.6439V29.9806C10.1462 30.0954 10.1924 30.2051 10.2736 30.2863C10.3548 30.3675 10.4645 30.4137 10.5793 30.4151ZM17.2618 30.4151H22.11C22.1671 30.4155 22.2236 30.4045 22.2763 30.3828C22.3291 30.361 22.3769 30.329 22.4171 30.2885C22.4573 30.2481 22.4891 30.2 22.5105 30.1471C22.5319 30.0943 22.5425 30.0377 22.5418 29.9806V25.6439C22.5421 25.5871 22.5312 25.5308 22.5097 25.4782C22.4881 25.4257 22.4563 25.3779 22.4161 25.3378C22.376 25.2976 22.3282 25.2658 22.2757 25.2443C22.2231 25.2227 22.1668 25.2118 22.11 25.2121H17.2618C17.205 25.2118 17.1487 25.2227 17.0961 25.2443C17.0436 25.2658 16.9958 25.2976 16.9557 25.3378C16.9155 25.3779 16.8837 25.4257 16.8622 25.4782C16.8406 25.5308 16.8297 25.5871 16.83 25.6439V29.9806C16.8314 30.095 16.8773 30.2042 16.9579 30.2853C17.0385 30.3664 17.1475 30.413 17.2618 30.4151ZM24.0735 30.4151H28.919C28.9763 30.4159 29.0331 30.4051 29.0862 30.3836C29.1392 30.362 29.1874 30.33 29.2279 30.2895C29.2684 30.249 29.3004 30.2008 29.322 30.1478C29.3435 30.0947 29.3543 30.0379 29.3535 29.9806V25.6439C29.3539 25.5868 29.3429 25.5303 29.3212 25.4776C29.2994 25.4249 29.2674 25.377 29.2269 25.3368C29.1865 25.2966 29.1384 25.2649 29.0855 25.2434C29.0327 25.222 28.9761 25.2114 28.919 25.2121H24.0735C24.0165 25.2114 23.9599 25.222 23.907 25.2434C23.8542 25.2649 23.8061 25.2966 23.7656 25.3368C23.7252 25.377 23.6931 25.4249 23.6714 25.4776C23.6497 25.5303 23.6387 25.5868 23.639 25.6439V29.9806C23.6359 30.0385 23.6449 30.0964 23.6656 30.1506C23.6863 30.2048 23.7182 30.2539 23.7592 30.2949C23.8002 30.3359 23.8494 30.3678 23.9036 30.3885C23.9577 30.4093 24.0156 30.4183 24.0735 30.4151ZM30.7835 30.4151H35.629C35.6863 30.4159 35.7431 30.4051 35.7962 30.3836C35.8492 30.362 35.8974 30.33 35.9379 30.2895C35.9784 30.249 36.0104 30.2008 36.032 30.1478C36.0535 30.0947 36.0643 30.0379 36.0635 29.9806V25.6439C36.0639 25.5868 36.0529 25.5303 36.0312 25.4776C36.0094 25.4249 35.9774 25.377 35.9369 25.3368C35.8965 25.2966 35.8484 25.2649 35.7955 25.2434C35.7427 25.222 35.6861 25.2114 35.629 25.2121H30.7835C30.7265 25.2114 30.6699 25.222 30.617 25.2434C30.5642 25.2649 30.5161 25.2966 30.4756 25.3368C30.4352 25.377 30.4031 25.4249 30.3814 25.4776C30.3597 25.5303 30.3487 25.5868 30.349 25.6439V29.9806C30.3483 30.0379 30.359 30.0947 30.3806 30.1478C30.4022 30.2008 30.4342 30.249 30.4746 30.2895C30.5151 30.33 30.5633 30.362 30.6164 30.3836C30.6694 30.4051 30.7263 30.4159 30.7835 30.4151ZM17.2618 24.2166H22.11C22.2237 24.2125 22.3315 24.1653 22.4117 24.0846C22.4919 24.004 22.5384 23.8958 22.5418 23.7821V19.4454C22.5421 19.3886 22.5312 19.3323 22.5097 19.2797C22.4881 19.2272 22.4563 19.1794 22.4161 19.1393C22.376 19.0991 22.3282 19.0673 22.2757 19.0458C22.2231 19.0242 22.1668 19.0133 22.11 19.0136H17.2618C17.205 19.0133 17.1487 19.0242 17.0961 19.0458C17.0436 19.0673 16.9958 19.0991 16.9557 19.1393C16.9155 19.1794 16.8837 19.2272 16.8622 19.2797C16.8406 19.3323 16.8297 19.3886 16.83 19.4454V23.7821C16.8377 23.8944 16.8855 24.0001 16.9648 24.0799C17.0441 24.1598 17.1496 24.2083 17.2618 24.2166ZM24.0735 24.2166H28.919C29.0332 24.2132 29.1417 24.1663 29.2224 24.0855C29.3032 24.0048 29.3501 23.8963 29.3535 23.7821V19.4454C29.3539 19.3883 29.3429 19.3318 29.3212 19.2791C29.2994 19.2264 29.2674 19.1785 29.2269 19.1383C29.1865 19.0981 29.1384 19.0664 29.0855 19.045C29.0327 19.0235 28.9761 19.0129 28.919 19.0136H24.0735C24.0165 19.0129 23.9599 19.0235 23.907 19.045C23.8542 19.0664 23.8061 19.0981 23.7656 19.1383C23.7252 19.1785 23.6931 19.2264 23.6714 19.2791C23.6497 19.3318 23.6387 19.3883 23.639 19.4454V23.7821C23.6383 23.8394 23.649 23.8962 23.6706 23.9493C23.6922 24.0023 23.7242 24.0505 23.7646 24.091C23.8051 24.1315 23.8533 24.1635 23.9064 24.1851C23.9594 24.2066 24.0163 24.2174 24.0735 24.2166ZM30.7835 24.2166H35.629C35.7432 24.2132 35.8517 24.1663 35.9324 24.0855C36.0132 24.0048 36.0601 23.8963 36.0635 23.7821V19.4454C36.0594 19.3317 36.0122 19.2239 35.9315 19.1437C35.8509 19.0635 35.7427 19.017 35.629 19.0136H30.7835C30.7265 19.0129 30.6699 19.0235 30.617 19.045C30.5642 19.0664 30.5161 19.0981 30.4756 19.1383C30.4352 19.1785 30.4031 19.2264 30.3814 19.2791C30.3597 19.3318 30.3487 19.3883 30.349 19.4454V23.7821C30.3525 23.8963 30.3994 24.0048 30.4801 24.0855C30.5609 24.1663 30.6694 24.2132 30.7835 24.2166ZM30.7835 17.9934H35.629C35.6863 17.9941 35.7431 17.9834 35.7962 17.9618C35.8492 17.9402 35.8974 17.9083 35.9379 17.8678C35.9784 17.8273 36.0104 17.7791 36.032 17.726C36.0535 17.673 36.0643 17.6161 36.0635 17.5589V13.2221C36.0601 13.108 36.0132 12.9995 35.9324 12.9187C35.8517 12.838 35.7432 12.7911 35.629 12.7876H30.7835C30.7263 12.7869 30.6694 12.7976 30.6164 12.8192C30.5633 12.8408 30.5151 12.8728 30.4746 12.9132C30.4342 12.9537 30.4022 13.0019 30.3806 13.055C30.359 13.108 30.3483 13.1649 30.349 13.2221V17.5589C30.3525 17.673 30.3994 17.7815 30.4801 17.8623C30.5609 17.943 30.6694 17.9899 30.7835 17.9934ZM37.543 30.4151H42.3885C42.4458 30.4159 42.5026 30.4051 42.5557 30.3836C42.6087 30.362 42.6569 30.33 42.6974 30.2895C42.7379 30.249 42.7699 30.2008 42.7915 30.1478C42.813 30.0947 42.8238 30.0379 42.823 29.9806V25.6439C42.8234 25.5868 42.8124 25.5303 42.7907 25.4776C42.7689 25.4249 42.7369 25.377 42.6964 25.3368C42.656 25.2966 42.6079 25.2649 42.555 25.2434C42.5022 25.222 42.4456 25.2114 42.3885 25.2121H37.543C37.486 25.2114 37.4294 25.222 37.3765 25.2434C37.3237 25.2649 37.2756 25.2966 37.2351 25.3368C37.1947 25.377 37.1626 25.4249 37.1409 25.4776C37.1192 25.5303 37.1082 25.5868 37.1085 25.6439V29.9806C37.11 30.0954 37.1562 30.2051 37.2374 30.2863C37.3185 30.3675 37.4282 30.4137 37.543 30.4151Z" fill="url(#paint2_linear_81_191)"/>
<defs>
<linearGradient id="paint0_linear_81_191" x1="33" y1="76" x2="33" y2="100" gradientUnits="userSpaceOnUse">
<stop stop-color="#A7CF9E"/>
<stop offset="1" stop-color="#EBEBEB"/>
</linearGradient>
<linearGradient id="paint1_linear_81_191" x1="32.9998" y1="20.3887" x2="32.9998" y2="52.2742" gradientUnits="userSpaceOnUse">
<stop stop-color="#A7CF9E"/>
<stop offset="1" stop-color="#D2D2AF"/>
</linearGradient>
<linearGradient id="paint2_linear_81_191" x1="26.4839" y1="12.7876" x2="26.4839" y2="30.4158" gradientUnits="userSpaceOnUse">
<stop stop-color="#A7CF9E"/>
<stop offset="1" stop-color="#D2D2AF"/>
</linearGradient>
</defs>
</svg>
