<svg width="66" height="100" viewBox="0 0 66 100" fill="none" xmlns="http://www.w3.org/2000/svg">
<path d="M12.1316 95H10.3791L3.16162 83.9163H3.08936C3.18571 85.217 3.23389 86.4094 3.23389 87.4934V95H1.81567V81.7935H3.55005L10.7495 92.832H10.8218C10.8097 92.6694 10.7826 92.1485 10.7405 91.2693C10.6983 90.384 10.6833 89.7517 10.6953 89.3723V81.7935H12.1316V95ZM24.175 90.0408C24.175 91.6547 23.7685 92.9163 22.9555 93.8257C22.1425 94.729 21.0194 95.1807 19.5861 95.1807C18.7009 95.1807 17.915 94.9729 17.2285 94.5574C16.542 94.1418 16.012 93.5457 15.6386 92.7688C15.2653 91.9919 15.0786 91.0826 15.0786 90.0408C15.0786 88.4268 15.4821 87.1712 16.289 86.2739C17.096 85.3706 18.2161 84.9189 19.6494 84.9189C21.0345 84.9189 22.1335 85.3796 22.9465 86.301C23.7655 87.2224 24.175 88.469 24.175 90.0408ZM16.6323 90.0408C16.6323 91.3054 16.8852 92.269 17.3911 92.9314C17.8969 93.5938 18.6407 93.925 19.6223 93.925C20.6039 93.925 21.3476 93.5968 21.8535 92.9404C22.3654 92.278 22.6213 91.3114 22.6213 90.0408C22.6213 88.7821 22.3654 87.8276 21.8535 87.1772C21.3476 86.5208 20.5979 86.1926 19.6042 86.1926C18.6226 86.1926 17.8819 86.5148 17.382 87.1592C16.8822 87.8035 16.6323 88.7641 16.6323 90.0408ZM33.644 93.6721H33.5627C32.8701 94.6778 31.8343 95.1807 30.4553 95.1807C29.1605 95.1807 28.1518 94.738 27.4291 93.8528C26.7125 92.9675 26.3542 91.7089 26.3542 90.0769C26.3542 88.4449 26.7155 87.1772 27.4382 86.2739C28.1608 85.3706 29.1665 84.9189 30.4553 84.9189C31.7982 84.9189 32.828 85.4067 33.5446 86.3823H33.662L33.5988 85.6687L33.5627 84.9731V80.9443H35.0622V95H33.8427L33.644 93.6721ZM30.645 93.925C31.6687 93.925 32.4094 93.648 32.8671 93.094C33.3308 92.5339 33.5627 91.6336 33.5627 90.3931V90.0769C33.5627 88.6737 33.3278 87.6741 32.8581 87.0779C32.3944 86.4757 31.6507 86.1746 30.6269 86.1746C29.7477 86.1746 29.0732 86.5178 28.6035 87.2043C28.1397 87.8848 27.9079 88.8484 27.9079 90.095C27.9079 91.3596 28.1397 92.3141 28.6035 92.9585C29.0672 93.6029 29.7477 93.925 30.645 93.925ZM42.5258 95.1807C41.0624 95.1807 39.9062 94.735 39.057 93.8438C38.2139 92.9525 37.7924 91.7149 37.7924 90.1311C37.7924 88.5352 38.1838 87.2676 38.9667 86.3281C39.7556 85.3887 40.8125 84.9189 42.1374 84.9189C43.3779 84.9189 44.3595 85.3285 45.0822 86.1475C45.8048 86.9605 46.1662 88.0354 46.1662 89.3723V90.3208H39.3461C39.3762 91.4831 39.6683 92.3653 40.2223 92.9675C40.7824 93.5697 41.5683 93.8708 42.58 93.8708C43.6459 93.8708 44.6998 93.648 45.7416 93.2024V94.5393C45.2117 94.7681 44.7088 94.9307 44.2331 95.0271C43.7633 95.1295 43.1942 95.1807 42.5258 95.1807ZM42.1193 86.1746C41.3244 86.1746 40.689 86.4335 40.2133 86.9514C39.7436 87.4693 39.4665 88.186 39.3822 89.1013H44.5583C44.5583 88.1558 44.3475 87.4332 43.9259 86.9334C43.5044 86.4275 42.9022 86.1746 42.1193 86.1746ZM48.6073 94.0425C48.6073 93.639 48.6976 93.3349 48.8783 93.1301C49.065 92.9194 49.33 92.814 49.6732 92.814C50.0225 92.814 50.2935 92.9194 50.4862 93.1301C50.6849 93.3349 50.7843 93.639 50.7843 94.0425C50.7843 94.4339 50.6849 94.735 50.4862 94.9458C50.2875 95.1566 50.0165 95.262 49.6732 95.262C49.3661 95.262 49.1101 95.1686 48.9054 94.9819C48.7067 94.7892 48.6073 94.4761 48.6073 94.0425ZM52.6473 99.4443C52.0752 99.4443 51.6115 99.3691 51.2562 99.2185V97.999C51.6717 98.1195 52.0812 98.1797 52.4847 98.1797C52.9544 98.1797 53.2977 98.0502 53.5145 97.7913C53.7373 97.5383 53.8487 97.1499 53.8487 96.626V85.0996H55.3482V96.5176C55.3482 98.4687 54.4479 99.4443 52.6473 99.4443ZM53.7223 82.4167C53.7223 82.0735 53.8066 81.8236 53.9752 81.667C54.1438 81.5044 54.3546 81.4231 54.6075 81.4231C54.8484 81.4231 55.0562 81.5044 55.2308 81.667C55.4054 81.8296 55.4928 82.0795 55.4928 82.4167C55.4928 82.754 55.4054 83.0069 55.2308 83.1755C55.0562 83.3381 54.8484 83.4194 54.6075 83.4194C54.3546 83.4194 54.1438 83.3381 53.9752 83.1755C53.8066 83.0069 53.7223 82.754 53.7223 82.4167ZM65.0069 92.2991C65.0069 93.2205 64.6636 93.9311 63.9771 94.4309C63.2906 94.9307 62.327 95.1807 61.0865 95.1807C59.7737 95.1807 58.7499 94.9729 58.0152 94.5574V93.1663C58.4909 93.4071 58.9998 93.5968 59.5418 93.7354C60.0898 93.8739 60.6168 93.9431 61.1226 93.9431C61.9055 93.9431 62.5077 93.8197 62.9293 93.5728C63.3508 93.3198 63.5616 92.9374 63.5616 92.4255C63.5616 92.0401 63.393 91.7119 63.0557 91.4409C62.7245 91.1639 62.0741 90.8387 61.1046 90.4653C60.1832 90.1221 59.5268 89.824 59.1353 89.571C58.7499 89.3121 58.4608 89.02 58.2681 88.6948C58.0814 88.3696 57.9881 87.9812 57.9881 87.5295C57.9881 86.7226 58.3163 86.0872 58.9727 85.6235C59.6291 85.1538 60.5294 84.9189 61.6736 84.9189C62.7396 84.9189 63.7814 85.1357 64.7991 85.5693L64.2662 86.7888C63.2725 86.3793 62.3722 86.1746 61.5652 86.1746C60.8546 86.1746 60.3187 86.286 59.9573 86.5088C59.596 86.7316 59.4153 87.0387 59.4153 87.4302C59.4153 87.6952 59.4816 87.921 59.6141 88.1077C59.7526 88.2944 59.9724 88.472 60.2735 88.6406C60.5746 88.8092 61.1527 89.0531 62.0079 89.3723C63.1822 89.7999 63.9741 90.2305 64.3836 90.6641C64.7991 91.0977 65.0069 91.6427 65.0069 92.2991Z" fill="url(#paint0_linear_81_162)"/>
<path d="M33 5.0874C32.2575 5.0874 31.4875 5.2799 30.855 5.6374L10.395 17.4624C9.075 18.2324 8.25 19.6624 8.25 21.2024V44.7974C8.25 46.3374 9.075 47.7674 10.395 48.5374L15.7575 51.6174C18.37 52.8824 19.25 52.9099 20.46 52.9099C24.31 52.9099 26.5375 50.5724 26.5375 46.5024V23.2099C26.5375 22.8799 26.2625 22.6049 25.9325 22.6049H23.375C23.0175 22.6049 22.7425 22.8799 22.7425 23.2099V46.5024C22.7425 48.3174 20.8725 50.1049 17.875 48.5924L12.2375 45.3749C12.1449 45.3095 12.0692 45.223 12.0166 45.1226C11.964 45.0222 11.936 44.9108 11.935 44.7974V21.2024C11.935 20.9549 12.045 20.7349 12.2375 20.6249L32.6975 8.8274C32.8625 8.7174 33.1375 8.7174 33.3025 8.8274L53.7625 20.6249C53.955 20.7349 54.065 20.9549 54.065 21.2024V44.7974C54.065 45.0174 53.955 45.2374 53.7625 45.3749L33.3025 57.1724C33.1375 57.2824 32.8625 57.2824 32.67 57.1724L27.5 54.0374C27.28 53.9549 27.06 53.9274 26.9225 54.0099C25.465 54.8349 25.19 54.9999 23.8425 55.4124C23.5125 55.5224 22.99 55.7149 24.035 56.2924L30.855 60.3349C31.515 60.7199 32.23 60.9124 33 60.9124C33.77 60.9124 34.485 60.7199 35.145 60.3349L55.605 48.5374C56.925 47.7674 57.75 46.3374 57.75 44.7974V21.2024C57.75 19.6624 56.925 18.2324 55.605 17.4624L35.145 5.6374C34.5125 5.2799 33.77 5.0874 33 5.0874ZM38.5 21.9999C32.67 21.9999 29.1775 24.4474 29.1775 28.5724C29.1775 32.9999 32.6425 34.2924 38.2525 34.8424C44.935 35.5024 45.4575 36.4924 45.4575 37.8124C45.4575 40.0949 43.615 41.0574 39.325 41.0574C33.88 41.0574 32.725 39.7099 32.3125 37.0149C32.2835 36.8756 32.2077 36.7505 32.0976 36.6604C31.9875 36.5703 31.8498 36.5207 31.7075 36.5199H29.0675C28.7375 36.5199 28.49 36.7674 28.49 37.1249C28.49 40.5349 30.36 44.6599 39.325 44.6599C45.7875 44.6599 49.5 42.1024 49.5 37.6474C49.5 33.2199 46.53 32.0649 40.2325 31.2124C33.88 30.3874 33.2475 29.9474 33.2475 28.4624C33.2475 27.2249 33.7975 25.5749 38.5 25.5749C42.625 25.5749 44.2475 26.4824 44.88 29.3149C44.935 29.5899 45.1825 29.7824 45.4575 29.7824H48.125C48.2625 29.7824 48.4275 29.7274 48.5375 29.5899C48.6475 29.4799 48.73 29.3149 48.675 29.1499C48.29 24.2549 45.045 21.9999 38.5 21.9999Z" fill="url(#paint1_linear_81_162)"/>
<defs>
<linearGradient id="paint0_linear_81_162" x1="33" y1="76" x2="33" y2="100" gradientUnits="userSpaceOnUse">
<stop stop-color="#A7CF9E"/>
<stop offset="1" stop-color="#EBEBEB"/>
</linearGradient>
<linearGradient id="paint1_linear_81_162" x1="33" y1="5.0874" x2="33" y2="60.9124" gradientUnits="userSpaceOnUse">
<stop stop-color="#A7CF9E"/>
<stop offset="1" stop-color="#D2D2AF"/>
</linearGradient>
</defs>
</svg>
