<svg width="101" height="103" viewBox="0 0 101 103" fill="none" xmlns="http://www.w3.org/2000/svg">
<path d="M10.1895 87.7202C10.1895 89.0571 9.73177 90.0869 8.81641 90.8096C7.90706 91.5262 6.60327 91.8845 4.90503 91.8845H3.35132V97.0786H1.81567V83.8721H5.23926C8.53939 83.8721 10.1895 85.1548 10.1895 87.7202ZM3.35132 90.5657H4.7334C6.0944 90.5657 7.07902 90.3459 7.68726 89.9063C8.29549 89.4666 8.59961 88.762 8.59961 87.7925C8.59961 86.9193 8.31356 86.2689 7.74145 85.8413C7.16935 85.4137 6.27808 85.2 5.06763 85.2H3.35132V90.5657ZM21.3747 92.1194C21.3747 93.7333 20.9682 94.995 20.1552 95.9043C19.3423 96.8076 18.2191 97.2593 16.7859 97.2593C15.9006 97.2593 15.1147 97.0515 14.4282 96.636C13.7417 96.2205 13.2117 95.6243 12.8383 94.8474C12.465 94.0706 12.2783 93.1612 12.2783 92.1194C12.2783 90.5055 12.6818 89.2498 13.4887 88.3525C14.2957 87.4492 15.4158 86.9976 16.8491 86.9976C18.2342 86.9976 19.3332 87.4583 20.1462 88.3796C20.9652 89.301 21.3747 90.5476 21.3747 92.1194ZM13.832 92.1194C13.832 93.384 14.0849 94.3476 14.5908 95.01C15.0966 95.6724 15.8404 96.0037 16.822 96.0037C17.8036 96.0037 18.5473 95.6755 19.0532 95.019C19.5651 94.3566 19.821 93.3901 19.821 92.1194C19.821 90.8608 19.5651 89.9063 19.0532 89.2559C18.5473 88.5994 17.7976 88.2712 16.8039 88.2712C15.8223 88.2712 15.0816 88.5934 14.5818 89.2378C14.0819 89.8822 13.832 90.8427 13.832 92.1194ZM30.4914 94.3777C30.4914 95.2991 30.1481 96.0097 29.4616 96.5095C28.7751 97.0094 27.8115 97.2593 26.571 97.2593C25.2582 97.2593 24.2344 97.0515 23.4997 96.636V95.2449C23.9754 95.4858 24.4843 95.6755 25.0263 95.814C25.5743 95.9525 26.1013 96.0217 26.6071 96.0217C27.39 96.0217 27.9922 95.8983 28.4138 95.6514C28.8353 95.3984 29.0461 95.016 29.0461 94.5042C29.0461 94.1187 28.8775 93.7905 28.5402 93.5195C28.209 93.2425 27.5586 92.9173 26.589 92.5439C25.6677 92.2007 25.0113 91.9026 24.6198 91.6497C24.2344 91.3907 23.9453 91.0986 23.7526 90.7734C23.5659 90.4482 23.4726 90.0598 23.4726 89.6082C23.4726 88.8012 23.8008 88.1659 24.4572 87.7021C25.1136 87.2324 26.0139 86.9976 27.1581 86.9976C28.2241 86.9976 29.2659 87.2144 30.2836 87.648L29.7507 88.8674C28.757 88.4579 27.8567 88.2532 27.0497 88.2532C26.3391 88.2532 25.8032 88.3646 25.4418 88.5874C25.0805 88.8102 24.8998 89.1174 24.8998 89.5088C24.8998 89.7738 24.9661 89.9996 25.0986 90.1863C25.2371 90.373 25.4569 90.5506 25.758 90.7192C26.0591 90.8879 26.6372 91.1318 27.4924 91.4509C28.6667 91.8785 29.4586 92.3091 29.8681 92.7427C30.2836 93.1763 30.4914 93.7213 30.4914 94.3777ZM36.2296 96.0217C36.4946 96.0217 36.7506 96.0037 36.9975 95.9675C37.2444 95.9254 37.4401 95.8832 37.5846 95.8411V96.9883C37.422 97.0666 37.1811 97.1298 36.862 97.178C36.5488 97.2322 36.2658 97.2593 36.0128 97.2593C34.0978 97.2593 33.1403 96.2506 33.1403 94.2332V88.3435H31.7221V87.6209L33.1403 86.9976L33.7726 84.8838H34.6398V87.1782H37.5124V88.3435H34.6398V94.1699C34.6398 94.7661 34.7813 95.2238 35.0644 95.543C35.3474 95.8621 35.7358 96.0217 36.2296 96.0217ZM47.7672 87.1782V88.1267L45.9335 88.3435C46.1021 88.5543 46.2526 88.8313 46.3851 89.1746C46.5176 89.5118 46.5839 89.8942 46.5839 90.3218C46.5839 91.2913 46.2526 92.0652 45.5902 92.6433C44.9278 93.2214 44.0184 93.5105 42.8622 93.5105C42.5671 93.5105 42.2901 93.4864 42.0311 93.4382C41.3928 93.7755 41.0736 94.2 41.0736 94.7119C41.0736 94.9829 41.185 95.1847 41.4078 95.3171C41.6307 95.4436 42.0131 95.5068 42.5551 95.5068H44.3075C45.3794 95.5068 46.2015 95.7327 46.7736 96.1843C47.3517 96.636 47.6407 97.2924 47.6407 98.1536C47.6407 99.2496 47.2011 100.084 46.3219 100.656C45.4427 101.234 44.16 101.523 42.4738 101.523C41.179 101.523 40.1793 101.282 39.4747 100.8C38.7762 100.319 38.4269 99.638 38.4269 98.7588C38.4269 98.1566 38.6196 97.6357 39.005 97.196C39.3904 96.7564 39.9324 96.4583 40.631 96.3018C40.3781 96.1873 40.1643 96.0097 39.9896 95.7688C39.821 95.5279 39.7367 95.2479 39.7367 94.9287C39.7367 94.5674 39.833 94.2512 40.0258 93.9802C40.2185 93.7092 40.5226 93.4473 40.9381 93.1943C40.4262 92.9836 40.0077 92.6252 39.6825 92.1194C39.3633 91.6135 39.2037 91.0354 39.2037 90.385C39.2037 89.301 39.5289 88.467 40.1793 87.8828C40.8297 87.2926 41.7511 86.9976 42.9435 86.9976C43.4614 86.9976 43.9281 87.0578 44.3436 87.1782H47.7672ZM39.8722 98.7407C39.8722 99.2767 40.098 99.6832 40.5497 99.9602C41.0013 100.237 41.6487 100.376 42.4918 100.376C43.7504 100.376 44.6809 100.186 45.2831 99.8066C45.8913 99.4333 46.1954 98.9244 46.1954 98.28C46.1954 97.7441 46.0298 97.3707 45.6986 97.1599C45.3674 96.9552 44.7441 96.8528 43.8287 96.8528H42.0311C41.3506 96.8528 40.8207 97.0154 40.4413 97.3406C40.0619 97.6658 39.8722 98.1325 39.8722 98.7407ZM40.6852 90.3489C40.6852 91.0414 40.8809 91.5653 41.2723 91.9207C41.6638 92.276 42.2088 92.4536 42.9073 92.4536C44.3707 92.4536 45.1024 91.743 45.1024 90.3218C45.1024 88.8343 44.3617 88.0906 42.8802 88.0906C42.1757 88.0906 41.6337 88.2803 41.2543 88.6597C40.8749 89.0391 40.6852 89.6021 40.6852 90.3489ZM54.4088 86.9976C54.8484 86.9976 55.2428 87.0337 55.5921 87.106L55.3844 88.4971C54.9749 88.4067 54.6135 88.3616 54.3004 88.3616C53.4994 88.3616 52.8129 88.6868 52.2408 89.3372C51.6747 89.9875 51.3917 90.7975 51.3917 91.7671V97.0786H49.8922V87.1782H51.1297L51.3014 89.012H51.3736C51.741 88.3676 52.1836 87.8708 52.7015 87.5215C53.2194 87.1722 53.7885 86.9976 54.4088 86.9976ZM61.7188 97.2593C60.2554 97.2593 59.0992 96.8136 58.2501 95.9224C57.407 95.0311 56.9854 93.7935 56.9854 92.2097C56.9854 90.6139 57.3769 89.3462 58.1597 88.4067C58.9486 87.4673 60.0055 86.9976 61.3304 86.9976C62.5709 86.9976 63.5526 87.4071 64.2752 88.2261C64.9979 89.0391 65.3592 90.114 65.3592 91.4509V92.3994H58.5391C58.5692 93.5617 58.8613 94.4439 59.4153 95.0461C59.9754 95.6484 60.7613 95.9495 61.773 95.9495C62.8389 95.9495 63.8928 95.7266 64.9346 95.281V96.6179C64.4047 96.8468 63.9018 97.0094 63.4261 97.1057C62.9564 97.2081 62.3873 97.2593 61.7188 97.2593ZM61.3123 88.2532C60.5174 88.2532 59.8821 88.5121 59.4063 89.03C58.9366 89.5479 58.6596 90.2646 58.5753 91.1799H63.7513C63.7513 90.2345 63.5405 89.5118 63.119 89.012C62.6974 88.5061 62.0952 88.2532 61.3123 88.2532ZM75.6953 93.5647C75.6953 94.727 75.2738 95.6333 74.4307 96.2837C73.5876 96.9341 72.4434 97.2593 70.9981 97.2593C69.4323 97.2593 68.2279 97.0575 67.3848 96.6541V95.1726C67.9268 95.4014 68.517 95.5821 69.1553 95.7146C69.7936 95.8471 70.426 95.9133 71.0523 95.9133C72.076 95.9133 72.8469 95.7206 73.3648 95.3352C73.8827 94.9438 74.1416 94.4018 74.1416 93.7092C74.1416 93.2515 74.0483 92.8782 73.8616 92.5891C73.6809 92.294 73.3738 92.023 72.9402 91.7761C72.5126 91.5292 71.8592 91.2492 70.98 90.936C69.7515 90.4964 68.8723 89.9755 68.3423 89.3733C67.8184 88.7711 67.5564 87.9852 67.5564 87.0156C67.5564 85.9979 67.9388 85.1879 68.7036 84.5857C69.4685 83.9835 70.4802 83.6824 71.7388 83.6824C73.0516 83.6824 74.2591 83.9233 75.3611 84.405L74.8824 85.7419C73.7923 85.2843 72.7325 85.0554 71.7027 85.0554C70.8897 85.0554 70.2543 85.2301 69.7967 85.5793C69.339 85.9286 69.1101 86.4134 69.1101 87.0337C69.1101 87.4914 69.1944 87.8678 69.3631 88.1628C69.5317 88.4519 69.8147 88.7199 70.2122 88.9668C70.6157 89.2077 71.2299 89.4757 72.055 89.7708C73.4401 90.2646 74.3915 90.7945 74.9095 91.3606C75.4334 91.9267 75.6953 92.6614 75.6953 93.5647ZM89.9519 90.4573C89.9519 92.1495 89.6117 93.5557 88.9312 94.6758C88.2506 95.7959 87.2901 96.5547 86.0496 96.9521L89.1931 100.222H86.9619L84.3875 97.2412L83.8906 97.2593C81.9455 97.2593 80.443 96.6661 79.3831 95.4797C78.3292 94.2874 77.8022 92.6072 77.8022 90.4392C77.8022 88.2893 78.3322 86.6242 79.3921 85.4438C80.452 84.2575 81.9575 83.6643 83.9087 83.6643C85.8057 83.6643 87.2871 84.2665 88.353 85.4709C89.4189 86.6754 89.9519 88.3375 89.9519 90.4573ZM79.4282 90.4573C79.4282 92.2459 79.8076 93.6038 80.5664 94.5313C81.3312 95.4526 82.4393 95.9133 83.8906 95.9133C85.354 95.9133 86.4591 95.4526 87.2058 94.5313C87.9526 93.6099 88.3259 92.2519 88.3259 90.4573C88.3259 88.6807 87.9526 87.3348 87.2058 86.4194C86.4651 85.498 85.366 85.0374 83.9087 85.0374C82.4453 85.0374 81.3312 85.5011 80.5664 86.4285C79.8076 87.3499 79.4282 88.6928 79.4282 90.4573ZM92.9983 97.0786V83.8721H94.5339V95.6875H100.36V97.0786H92.9983Z" fill="url(#paint0_linear_81_198)"/>
<g clip-path="url(#clip0_81_198)">
<path d="M83.7533 41.7152C83.7148 41.5952 83.6605 41.4809 83.5918 41.3752C83.1951 40.6291 82.2441 40.411 80.7386 40.7207C76.0523 41.6841 74.239 41.0891 73.5816 40.6641C77.384 34.8614 80.5091 27.8518 82.1978 21.3124C82.9685 18.3374 84.4588 11.3306 82.5435 7.91075C82.4216 7.67589 82.2794 7.45214 82.1185 7.24209C78.4635 2.57842 73.1 0.0709207 66.6116 0.00292073C62.3758 -0.0424126 58.7633 0.983254 57.783 1.36009C57.2977 1.26992 56.8102 1.19245 56.321 1.12775C55.0939 0.905758 53.8505 0.785405 52.6036 0.767921C49.2546 0.714087 46.3618 1.51592 43.962 3.14792C41.5366 2.23842 30.3988 -1.51291 23.5053 3.37175C19.6491 6.10025 17.8755 10.9736 18.2183 17.8614C18.3345 20.1791 19.6548 27.3078 21.7401 34.1361C23.0435 38.405 24.3969 41.788 25.8003 44.2851C27.3681 47.1052 28.9869 48.7957 30.6566 49.3567C31.926 49.7761 33.8668 49.7619 35.921 47.2912C37.7029 45.1599 39.5405 43.0758 41.4318 41.0409C42.6643 41.7067 43.9988 42.0666 45.3701 42.1091V42.1204C45.1317 42.4043 44.8984 42.6924 44.6703 42.9846C43.7098 44.2029 43.5086 44.4579 40.4203 45.0954C39.542 45.2767 37.2073 45.7556 37.1733 47.3932C37.1683 47.7205 37.2578 48.0422 37.4311 48.3198C38.0743 49.5183 40.0435 50.0481 40.307 50.1132C44.0895 51.0567 47.4045 50.3739 49.861 48.1894C49.8128 54.5106 50.0791 60.7071 50.8385 62.6054C51.4646 64.1722 52.9975 68.0001 57.8368 68.0001C58.5451 68.002 59.3281 67.9132 60.1856 67.7337C65.2346 66.6514 67.4276 64.4187 68.2748 59.5001C68.6998 57.0351 69.4138 51.3542 69.802 47.8806C69.8501 47.6822 69.904 47.5406 69.9635 47.4952C69.9635 47.4952 70.1618 47.3592 71.1733 47.5802L71.298 47.6001L72.0176 47.6624L72.0601 47.6652C74.46 47.7757 77.4746 47.2629 79.2313 46.4469C81.056 45.5969 84.3511 43.5201 83.7533 41.7152ZM23.715 33.6488C21.607 26.7496 20.3773 19.8079 20.281 17.8643C19.9721 11.7103 21.4625 7.42909 24.7066 5.13409C29.9115 1.45359 38.42 3.60409 42.0126 4.76575L41.9843 4.79409C36.2525 10.5798 36.3885 20.4738 36.4083 21.0801C36.4083 21.3124 36.4253 21.6439 36.4536 22.1001C36.55 23.7604 36.737 26.8601 36.244 30.3678C35.7906 33.6261 36.7936 36.8164 39.0008 39.1199C39.2275 39.3579 39.4655 39.5817 39.7148 39.7914C38.7316 40.8426 36.5981 43.1716 34.323 45.9057C32.7136 47.8381 31.603 47.4669 31.2403 47.3451C30.1296 46.9767 28.9368 45.6819 27.7298 43.5994C26.3698 41.2222 25.0013 37.8421 23.7206 33.6488M40.7405 48.0648C40.31 47.9574 39.8976 47.7875 39.5165 47.5604C39.7686 47.4499 40.188 47.3054 40.885 47.1637C44.523 46.4129 45.084 45.8859 46.3108 44.3304C46.6423 43.8997 46.9891 43.481 47.3506 43.0752C47.4431 42.9667 47.5142 42.8418 47.5603 42.7069C48.042 42.2791 48.331 42.3952 48.7956 42.5879C49.2376 42.7721 49.6683 43.3246 49.844 43.9337C49.929 44.2227 50.0196 44.7696 49.7165 45.1946C47.1551 48.7816 43.4208 48.7362 40.7405 48.0648ZM46.6735 36.7654L46.5261 37.1621C46.1493 38.1736 45.798 39.1142 45.5798 40.0067C43.69 40.0011 41.8483 39.1908 40.4515 37.7316C38.6721 35.8758 37.8646 33.2946 38.233 30.6483C38.7515 26.9423 38.5616 23.7151 38.4596 21.9811L38.4228 21.3578C39.2615 20.6154 43.1431 18.5358 45.9113 19.1704C47.175 19.4594 47.9456 20.3208 48.263 21.7998C49.9205 29.4611 48.484 32.6514 47.328 35.2184C47.0938 35.7268 46.8765 36.2427 46.6763 36.7654M67.541 49.7194C67.4956 50.2219 67.4371 50.7847 67.3653 51.4081L66.9516 52.6491C66.9207 52.7483 66.9035 52.8512 66.9006 52.9551C66.8836 54.3009 66.7476 54.7939 66.5748 55.4201C66.2935 56.3962 66.1224 57.4007 66.0648 58.4149C65.7531 62.4212 63.5771 64.7247 59.2166 65.6569C54.9241 66.5777 54.162 64.2516 53.4933 62.1974C53.4233 61.9818 53.3496 61.7674 53.2723 61.5542C52.6631 59.8939 52.734 57.5536 52.8275 54.3151C52.8728 52.7256 52.7566 48.9289 51.8925 46.8181C51.9038 45.987 51.9217 45.1445 51.9463 44.2907C51.9466 44.1824 51.9313 44.0746 51.901 43.9706C51.8699 43.7721 51.8283 43.5753 51.7763 43.3812C51.4306 42.1686 50.5863 41.1542 49.5663 40.7321C49.164 40.5649 48.4245 40.2589 47.5348 40.4856C47.7246 39.7036 48.0533 38.8224 48.4103 37.8648L48.5605 37.4624C48.7305 37.0091 48.9401 36.5416 49.164 36.0457C50.371 33.3598 52.0256 29.6821 50.2293 21.3748C49.5578 18.2638 47.311 16.7451 43.9053 17.0964C41.8653 17.3089 39.9953 18.1334 39.0631 18.6038C38.8762 18.6985 38.6911 18.7968 38.5078 18.8984C38.7685 15.7648 39.7516 9.90542 43.4265 6.19942C43.6991 5.92425 43.9856 5.66324 44.285 5.41742C44.434 5.38919 44.5745 5.32715 44.6958 5.23609C46.8265 3.62109 49.4983 2.82775 52.6348 2.87592C53.7984 2.89481 54.9071 2.97131 55.9611 3.10542C61.4578 4.11125 65.1525 7.20525 67.3965 9.85725C69.7028 12.5829 70.9523 15.3284 71.451 16.8103C67.7025 16.4306 65.1525 17.1701 63.8576 19.0203C61.047 23.0379 65.399 30.8409 67.49 34.5922C67.8725 35.2779 68.204 35.8729 68.3088 36.1222C68.9888 37.7741 69.87 38.8762 70.5131 39.6809C70.7115 39.9274 70.9041 40.1654 71.0486 40.3751C69.9153 40.7037 67.8753 41.4602 68.0595 45.2399C67.9891 46.0105 67.9098 46.7803 67.8215 47.5491C67.6911 48.1384 67.626 48.8524 67.541 49.7194ZM70.0598 45.1266C69.9465 42.7692 70.8248 42.5227 71.7513 42.2649L72.1338 42.1487C72.2519 42.2566 72.3789 42.3542 72.5135 42.4406C74.1285 43.5059 76.9986 43.6334 81.0333 42.8202C80.461 43.3217 79.5628 43.9536 78.3331 44.5231C77.1715 45.0614 75.2278 45.4666 73.3833 45.5544C71.3433 45.6507 70.3063 45.3277 70.0598 45.1266ZM71.6748 18.8588C71.6438 19.8101 71.5444 20.7579 71.3773 21.6949C71.2215 22.7093 71.06 23.7576 71.0175 25.0297C70.9778 26.2651 71.1308 27.5514 71.281 28.7981C71.5841 31.3112 71.893 33.8981 70.6945 36.4509C70.4976 36.0971 70.3197 35.7329 70.1618 35.3601C69.8804 34.7643 69.5732 34.181 69.241 33.6119C67.4956 30.4839 63.4128 23.1569 65.501 20.1706C66.5776 18.6321 69.3033 18.5669 71.6748 18.8588ZM72.3208 38.7289L72.08 38.4257L71.9808 38.3011C74.0378 34.9011 73.6355 31.5379 73.2756 28.5573C73.1283 27.3333 72.9923 26.1773 73.0263 25.0949C73.0631 23.9418 73.2133 22.9558 73.3606 22.0009C73.542 20.8251 73.729 19.6096 73.6751 18.1759C73.715 17.9994 73.7265 17.8177 73.7091 17.6376C73.5788 16.2606 72.0091 12.1466 68.8075 8.42075C66.721 5.96145 64.1215 3.98862 61.1915 2.64075C63.0771 2.25631 64.9992 2.07959 66.9233 2.11375C72.7373 2.24409 77.3358 4.42009 80.5913 8.58225C80.6602 8.6728 80.7236 8.76742 80.7811 8.86559C82.8296 12.7076 80.002 26.6447 72.3208 38.7289ZM47.3393 21.4003C47.2685 21.9103 46.461 22.5988 45.5798 22.5988L45.3503 22.5818C44.7753 22.48 44.2617 22.1603 43.9166 21.6893C43.7863 21.5193 43.5766 21.1849 43.6163 20.8818C43.6289 20.7971 43.6588 20.7159 43.7041 20.6432C43.7494 20.5706 43.8092 20.5081 43.8798 20.4596C44.2141 20.2074 44.8771 20.1139 45.6081 20.2159C46.5035 20.3406 47.4271 20.7628 47.3365 21.4003M69.8048 20.2358C69.836 20.4624 69.666 20.8024 69.3713 21.1141C69.0664 21.4467 68.6599 21.6689 68.2153 21.7459L68.0028 21.7601C67.1726 21.7601 66.47 21.0971 66.4161 20.7089C66.3481 20.2074 67.1641 19.8306 68.0028 19.7116C68.8471 19.5926 69.7368 19.7371 69.8048 20.2358Z" fill="url(#paint1_linear_81_198)"/>
</g>
<defs>
<linearGradient id="paint0_linear_81_198" x1="50.5" y1="78.0786" x2="50.5" y2="102.079" gradientUnits="userSpaceOnUse">
<stop stop-color="#A7CF9E"/>
<stop offset="1" stop-color="#D2D2AF"/>
</linearGradient>
<linearGradient id="paint1_linear_81_198" x1="50.9993" y1="0.00146484" x2="50.9993" y2="68.0001" gradientUnits="userSpaceOnUse">
<stop stop-color="#A7CF9E"/>
<stop offset="1" stop-color="#D2D2AF"/>
</linearGradient>
<clipPath id="clip0_81_198">
<rect width="68" height="68" fill="white" transform="translate(17)"/>
</clipPath>
</defs>
</svg>
