<svg width="72" height="101" viewBox="0 0 72 101" fill="none" xmlns="http://www.w3.org/2000/svg">
<path d="M15.1895 86.6416C15.1895 87.9785 14.7318 89.0083 13.8164 89.731C12.9071 90.4476 11.6033 90.8059 9.90503 90.8059H8.35132V96H6.81567V82.7935H10.2393C13.5394 82.7935 15.1895 84.0762 15.1895 86.6416ZM8.35132 89.4871H9.7334C11.0944 89.4871 12.079 89.2673 12.6873 88.8276C13.2955 88.388 13.5996 87.6834 13.5996 86.7139C13.5996 85.8407 13.3136 85.1903 12.7415 84.7627C12.1694 84.3351 11.2781 84.1213 10.0676 84.1213H8.35132V89.4871ZM16.2575 86.0996H17.8654L20.0334 91.7454C20.5092 93.0341 20.8042 93.9645 20.9187 94.5366H20.9909C21.0692 94.2295 21.2318 93.7056 21.4787 92.9648C21.7317 92.2181 22.5507 89.9297 23.9358 86.0996H25.5437L21.289 97.373C20.8675 98.4871 20.3737 99.276 19.8076 99.7397C19.2475 100.209 18.558 100.444 17.739 100.444C17.2813 100.444 16.8296 100.393 16.384 100.291V99.0894C16.7152 99.1616 17.0856 99.1978 17.4951 99.1978C18.5249 99.1978 19.2596 98.6196 19.6992 97.4634L20.2502 96.0542L16.2575 86.0996ZM30.4418 94.9431C30.7068 94.9431 30.9627 94.925 31.2097 94.8889C31.4566 94.8468 31.6523 94.8046 31.7968 94.7625V95.9097C31.6342 95.988 31.3933 96.0512 31.0742 96.0994C30.761 96.1536 30.478 96.1807 30.225 96.1807C28.31 96.1807 27.3525 95.172 27.3525 93.1545V87.2649H25.9343V86.5422L27.3525 85.9189L27.9848 83.8052H28.852V86.0996H31.7245V87.2649H28.852V93.0913C28.852 93.6875 28.9935 94.1452 29.2765 94.4644C29.5596 94.7835 29.948 94.9431 30.4418 94.9431ZM40.6515 96V89.5955C40.6515 88.7885 40.4678 88.1863 40.1005 87.7888C39.7331 87.3914 39.158 87.1926 38.3752 87.1926C37.3333 87.1926 36.5715 87.4757 36.0898 88.0417C35.614 88.6078 35.3761 89.5352 35.3761 90.824V96H33.8766V81.9443H35.3761V86.199C35.3761 86.7109 35.352 87.1354 35.3039 87.4727H35.3942C35.6893 86.9969 36.1078 86.6235 36.6498 86.3525C37.1978 86.0755 37.8211 85.937 38.5197 85.937C39.7301 85.937 40.6365 86.2261 41.2387 86.8042C41.8469 87.3763 42.151 88.2887 42.151 89.5413V96H40.6515ZM53.8783 91.0408C53.8783 92.6547 53.4718 93.9163 52.6588 94.8257C51.8458 95.729 50.7227 96.1807 49.2894 96.1807C48.4042 96.1807 47.6183 95.9729 46.9318 95.5574C46.2452 95.1418 45.7153 94.5457 45.3419 93.7688C44.9685 92.9919 44.7819 92.0826 44.7819 91.0408C44.7819 89.4268 45.1853 88.1712 45.9923 87.2739C46.7993 86.3706 47.9194 85.9189 49.3527 85.9189C50.7378 85.9189 51.8368 86.3796 52.6498 87.301C53.4688 88.2224 53.8783 89.469 53.8783 91.0408ZM46.3356 91.0408C46.3356 92.3054 46.5885 93.269 47.0944 93.9314C47.6002 94.5938 48.344 94.925 49.3256 94.925C50.3072 94.925 51.0509 94.5968 51.5568 93.9404C52.0686 93.278 52.3246 92.3114 52.3246 91.0408C52.3246 89.7821 52.0686 88.8276 51.5568 88.1772C51.0509 87.5208 50.3011 87.1926 49.3075 87.1926C48.3259 87.1926 47.5852 87.5148 47.0853 88.1592C46.5855 88.8035 46.3356 89.7641 46.3356 91.0408ZM63.3834 96V89.5955C63.3834 88.7885 63.1997 88.1863 62.8324 87.7888C62.465 87.3914 61.8899 87.1926 61.107 87.1926C60.0712 87.1926 59.3124 87.4727 58.8307 88.0327C58.3489 88.5928 58.108 89.5172 58.108 90.8059V96H56.6085V86.0996H57.828L58.0719 87.4546H58.1441C58.4513 86.9668 58.8818 86.5904 59.4359 86.3254C59.9899 86.0544 60.6072 85.9189 61.2877 85.9189C62.4801 85.9189 63.3774 86.208 63.9796 86.7861C64.5818 87.3582 64.8829 88.2766 64.8829 89.5413V96H63.3834Z" fill="url(#paint0_linear_81_168)"/>
<path d="M33 16.5V16.53M39 55.47V55.5" stroke="url(#paint1_linear_81_168)" stroke-width="3.625" stroke-linecap="round"/>
<path d="M52.494 25.5H46.494V19.5C46.494 15.288 46.494 13.179 45.486 11.667C45.0482 11.0116 44.4854 10.4489 43.83 10.011C42.318 9 40.209 9 35.997 9C31.785 9 29.676 9 28.164 10.011C27.5086 10.4489 26.9459 11.0116 26.508 11.667C25.497 13.179 25.497 15.288 25.497 19.5V25.5H19.494C15.282 25.5 13.173 25.5 11.661 26.511C11.0056 26.9489 10.4429 27.5116 10.005 28.167C8.99402 29.679 8.99402 31.788 8.99402 36C8.99402 40.212 8.99402 42.321 10.005 43.833C10.4429 44.4884 11.0056 45.0511 11.661 45.489C13.173 46.5 15.282 46.5 19.494 46.5H25.494V52.5C25.494 56.712 25.494 58.821 26.508 60.333C26.9459 60.9884 27.5086 61.5511 28.164 61.989C29.676 63 31.782 63 35.994 63C40.209 63 42.318 63 43.83 61.989C44.484 61.551 45.048 60.987 45.486 60.333C46.497 58.821 46.497 56.712 46.497 52.5V46.5H52.494C56.706 46.5 58.815 46.5 60.327 45.489C60.9824 45.0511 61.5452 44.4884 61.983 43.833C62.994 42.321 62.994 40.212 62.994 36C62.994 31.788 62.994 29.679 61.983 28.167C61.5452 27.5116 60.9824 26.9489 60.327 26.511C58.815 25.5 56.706 25.5 52.494 25.5Z" stroke="url(#paint2_linear_81_168)" stroke-width="3.625" stroke-linecap="round" stroke-linejoin="round"/>
<path d="M46.5 25.5V36H25.5V46.5M36 46.5H46.5M25.5 25.5H36" stroke="url(#paint3_linear_81_168)" stroke-width="3.625" stroke-linecap="round" stroke-linejoin="round"/>
<defs>
<linearGradient id="paint0_linear_81_168" x1="36" y1="77" x2="36" y2="101" gradientUnits="userSpaceOnUse">
<stop stop-color="#A7CF9E"/>
<stop offset="1" stop-color="#EBEBEB"/>
</linearGradient>
<linearGradient id="paint1_linear_81_168" x1="36" y1="16.5" x2="36" y2="55.5" gradientUnits="userSpaceOnUse">
<stop stop-color="#A7CF9E"/>
<stop offset="1" stop-color="#D2D2AF"/>
</linearGradient>
<linearGradient id="paint2_linear_81_168" x1="35.994" y1="9" x2="35.994" y2="63" gradientUnits="userSpaceOnUse">
<stop stop-color="#A7CF9E"/>
<stop offset="1" stop-color="#D2D2AF"/>
</linearGradient>
<linearGradient id="paint3_linear_81_168" x1="36" y1="25.5" x2="36" y2="46.5" gradientUnits="userSpaceOnUse">
<stop stop-color="#A7CF9E"/>
<stop offset="1" stop-color="#D2D2AF"/>
</linearGradient>
</defs>
</svg>
